<svg xmlns="http://www.w3.org/2000/svg" version="1.1" height="493.5px" width="551px" viewBox="-10 -10 571 513.5" content="&lt;mxGraphModel dx=&quot;1702&quot; dy=&quot;1248&quot; grid=&quot;1&quot; gridSize=&quot;10&quot; guides=&quot;1&quot; tooltips=&quot;1&quot; connect=&quot;1&quot; arrows=&quot;1&quot; fold=&quot;1&quot; page=&quot;0&quot; pageScale=&quot;1&quot; pageWidth=&quot;850&quot; pageHeight=&quot;1100&quot; math=&quot;0&quot; shadow=&quot;0&quot;&gt;&lt;root&gt;&lt;mxCell id=&quot;0&quot;/&gt;&lt;mxCell id=&quot;1&quot; parent=&quot;0&quot;/&gt;&lt;mxCell id=&quot;2&quot; value=&quot;Client&quot; style=&quot;swimlane;fontStyle=1;align=center;verticalAlign=top;childLayout=stackLayout;horizontal=1;startSize=26;horizontalStack=0;resizeParent=1;resizeParentMax=0;resizeLast=0;collapsible=1;marginBottom=0;&quot; parent=&quot;1&quot; vertex=&quot;1&quot;&gt;&lt;mxGeometry x=&quot;-10&quot; y=&quot;-100&quot; width=&quot;160&quot; height=&quot;86&quot; as=&quot;geometry&quot;/&gt;&lt;/mxCell&gt;&lt;mxCell id=&quot;17&quot; value=&quot;- _storer : IDataStorer&quot; style=&quot;text;strokeColor=none;fillColor=none;align=left;verticalAlign=top;spacingLeft=4;spacingRight=4;overflow=hidden;rotatable=0;points=[[0,0.5],[1,0.5]];portConstraint=eastwest;&quot; parent=&quot;2&quot; vertex=&quot;1&quot;&gt;&lt;mxGeometry y=&quot;26&quot; width=&quot;160&quot; height=&quot;26&quot; as=&quot;geometry&quot;/&gt;&lt;/mxCell&gt;&lt;mxCell id=&quot;4&quot; value=&quot;&quot; style=&quot;line;strokeWidth=1;fillColor=none;align=left;verticalAlign=middle;spacingTop=-1;spacingLeft=3;spacingRight=3;rotatable=0;labelPosition=right;points=[];portConstraint=eastwest;&quot; parent=&quot;2&quot; vertex=&quot;1&quot;&gt;&lt;mxGeometry y=&quot;52&quot; width=&quot;160&quot; height=&quot;8&quot; as=&quot;geometry&quot;/&gt;&lt;/mxCell&gt;&lt;mxCell id=&quot;5&quot; value=&quot;+ Client(IDataStorer)&quot; style=&quot;text;strokeColor=none;fillColor=none;align=left;verticalAlign=top;spacingLeft=4;spacingRight=4;overflow=hidden;rotatable=0;points=[[0,0.5],[1,0.5]];portConstraint=eastwest;&quot; parent=&quot;2&quot; vertex=&quot;1&quot;&gt;&lt;mxGeometry y=&quot;60&quot; width=&quot;160&quot; height=&quot;26&quot; as=&quot;geometry&quot;/&gt;&lt;/mxCell&gt;&lt;mxCell id=&quot;6&quot; value=&quot;SqlStorer&quot; style=&quot;swimlane;fontStyle=1;align=center;verticalAlign=top;childLayout=stackLayout;horizontal=1;startSize=26;horizontalStack=0;resizeParent=1;resizeParentMax=0;resizeLast=0;collapsible=1;marginBottom=0;&quot; parent=&quot;1&quot; vertex=&quot;1&quot;&gt;&lt;mxGeometry x=&quot;-145&quot; y=&quot;160&quot; width=&quot;160&quot; height=&quot;60&quot; as=&quot;geometry&quot;/&gt;&lt;/mxCell&gt;&lt;mxCell id=&quot;7&quot; value=&quot;&quot; style=&quot;line;strokeWidth=1;fillColor=none;align=left;verticalAlign=middle;spacingTop=-1;spacingLeft=3;spacingRight=3;rotatable=0;labelPosition=right;points=[];portConstraint=eastwest;&quot; parent=&quot;6&quot; vertex=&quot;1&quot;&gt;&lt;mxGeometry y=&quot;26&quot; width=&quot;160&quot; height=&quot;8&quot; as=&quot;geometry&quot;/&gt;&lt;/mxCell&gt;&lt;mxCell id=&quot;8&quot; value=&quot;+ StoreData() : void&quot; style=&quot;text;strokeColor=none;fillColor=none;align=left;verticalAlign=top;spacingLeft=4;spacingRight=4;overflow=hidden;rotatable=0;points=[[0,0.5],[1,0.5]];portConstraint=eastwest;&quot; parent=&quot;6&quot; vertex=&quot;1&quot;&gt;&lt;mxGeometry y=&quot;34&quot; width=&quot;160&quot; height=&quot;26&quot; as=&quot;geometry&quot;/&gt;&lt;/mxCell&gt;&lt;mxCell id=&quot;9&quot; value=&quot;StorerDecorator&quot; style=&quot;swimlane;fontStyle=1;align=center;verticalAlign=top;childLayout=stackLayout;horizontal=1;startSize=26;horizontalStack=0;resizeParent=1;resizeParentMax=0;resizeLast=0;collapsible=1;marginBottom=0;&quot; parent=&quot;1&quot; vertex=&quot;1&quot;&gt;&lt;mxGeometry x=&quot;95&quot; y=&quot;160&quot; width=&quot;190&quot; height=&quot;112&quot; as=&quot;geometry&quot;/&gt;&lt;/mxCell&gt;&lt;mxCell id=&quot;12&quot; value=&quot;- storer : IDataStorer&quot; style=&quot;text;strokeColor=none;fillColor=none;align=left;verticalAlign=top;spacingLeft=4;spacingRight=4;overflow=hidden;rotatable=0;points=[[0,0.5],[1,0.5]];portConstraint=eastwest;&quot; parent=&quot;9&quot; vertex=&quot;1&quot;&gt;&lt;mxGeometry y=&quot;26&quot; width=&quot;190&quot; height=&quot;26&quot; as=&quot;geometry&quot;/&gt;&lt;/mxCell&gt;&lt;mxCell id=&quot;10&quot; value=&quot;&quot; style=&quot;line;strokeWidth=1;fillColor=none;align=left;verticalAlign=middle;spacingTop=-1;spacingLeft=3;spacingRight=3;rotatable=0;labelPosition=right;points=[];portConstraint=eastwest;&quot; parent=&quot;9&quot; vertex=&quot;1&quot;&gt;&lt;mxGeometry y=&quot;52&quot; width=&quot;190&quot; height=&quot;8&quot; as=&quot;geometry&quot;/&gt;&lt;/mxCell&gt;&lt;mxCell id=&quot;11&quot; value=&quot;+ StorerAddition(IDataStorer)&quot; style=&quot;text;strokeColor=none;fillColor=none;align=left;verticalAlign=top;spacingLeft=4;spacingRight=4;overflow=hidden;rotatable=0;points=[[0,0.5],[1,0.5]];portConstraint=eastwest;&quot; parent=&quot;9&quot; vertex=&quot;1&quot;&gt;&lt;mxGeometry y=&quot;60&quot; width=&quot;190&quot; height=&quot;26&quot; as=&quot;geometry&quot;/&gt;&lt;/mxCell&gt;&lt;mxCell id=&quot;13&quot; value=&quot;+ StoreData() : void&quot; style=&quot;text;strokeColor=none;fillColor=none;align=left;verticalAlign=top;spacingLeft=4;spacingRight=4;overflow=hidden;rotatable=0;points=[[0,0.5],[1,0.5]];portConstraint=eastwest;&quot; parent=&quot;9&quot; vertex=&quot;1&quot;&gt;&lt;mxGeometry y=&quot;86&quot; width=&quot;190&quot; height=&quot;26&quot; as=&quot;geometry&quot;/&gt;&lt;/mxCell&gt;&lt;mxCell id=&quot;14&quot; value=&quot;IDataStorer&quot; style=&quot;swimlane;fontStyle=1;align=center;verticalAlign=top;childLayout=stackLayout;horizontal=1;startSize=26;horizontalStack=0;resizeParent=1;resizeParentMax=0;resizeLast=0;collapsible=1;marginBottom=0;&quot; parent=&quot;1&quot; vertex=&quot;1&quot;&gt;&lt;mxGeometry x=&quot;-10&quot; y=&quot;40&quot; width=&quot;160&quot; height=&quot;60&quot; as=&quot;geometry&quot;/&gt;&lt;/mxCell&gt;&lt;mxCell id=&quot;15&quot; value=&quot;&quot; style=&quot;line;strokeWidth=1;fillColor=none;align=left;verticalAlign=middle;spacingTop=-1;spacingLeft=3;spacingRight=3;rotatable=0;labelPosition=right;points=[];portConstraint=eastwest;&quot; parent=&quot;14&quot; vertex=&quot;1&quot;&gt;&lt;mxGeometry y=&quot;26&quot; width=&quot;160&quot; height=&quot;8&quot; as=&quot;geometry&quot;/&gt;&lt;/mxCell&gt;&lt;mxCell id=&quot;16&quot; value=&quot;+ StoreData() : void&quot; style=&quot;text;strokeColor=none;fillColor=none;align=left;verticalAlign=top;spacingLeft=4;spacingRight=4;overflow=hidden;rotatable=0;points=[[0,0.5],[1,0.5]];portConstraint=eastwest;&quot; parent=&quot;14&quot; vertex=&quot;1&quot;&gt;&lt;mxGeometry y=&quot;34&quot; width=&quot;160&quot; height=&quot;26&quot; as=&quot;geometry&quot;/&gt;&lt;/mxCell&gt;&lt;mxCell id=&quot;18&quot; value=&quot;JsonStorerDecorator&quot; style=&quot;swimlane;fontStyle=1;align=center;verticalAlign=top;childLayout=stackLayout;horizontal=1;startSize=26;horizontalStack=0;resizeParent=1;resizeParentMax=0;resizeLast=0;collapsible=1;marginBottom=0;&quot; parent=&quot;1&quot; vertex=&quot;1&quot;&gt;&lt;mxGeometry x=&quot;-25&quot; y=&quot;330&quot; width=&quot;190&quot; height=&quot;60&quot; as=&quot;geometry&quot;/&gt;&lt;/mxCell&gt;&lt;mxCell id=&quot;20&quot; value=&quot;&quot; style=&quot;line;strokeWidth=1;fillColor=none;align=left;verticalAlign=middle;spacingTop=-1;spacingLeft=3;spacingRight=3;rotatable=0;labelPosition=right;points=[];portConstraint=eastwest;&quot; parent=&quot;18&quot; vertex=&quot;1&quot;&gt;&lt;mxGeometry y=&quot;26&quot; width=&quot;190&quot; height=&quot;8&quot; as=&quot;geometry&quot;/&gt;&lt;/mxCell&gt;&lt;mxCell id=&quot;22&quot; value=&quot;+ StoreData() : void&quot; style=&quot;text;strokeColor=none;fillColor=none;align=left;verticalAlign=top;spacingLeft=4;spacingRight=4;overflow=hidden;rotatable=0;points=[[0,0.5],[1,0.5]];portConstraint=eastwest;&quot; parent=&quot;18&quot; vertex=&quot;1&quot;&gt;&lt;mxGeometry y=&quot;34&quot; width=&quot;190&quot; height=&quot;26&quot; as=&quot;geometry&quot;/&gt;&lt;/mxCell&gt;&lt;mxCell id=&quot;23&quot; value=&quot;XmlStorerDecorator&quot; style=&quot;swimlane;fontStyle=1;align=center;verticalAlign=top;childLayout=stackLayout;horizontal=1;startSize=26;horizontalStack=0;resizeParent=1;resizeParentMax=0;resizeLast=0;collapsible=1;marginBottom=0;&quot; parent=&quot;1&quot; vertex=&quot;1&quot;&gt;&lt;mxGeometry x=&quot;215&quot; y=&quot;330&quot; width=&quot;190&quot; height=&quot;60&quot; as=&quot;geometry&quot;/&gt;&lt;/mxCell&gt;&lt;mxCell id=&quot;24&quot; value=&quot;&quot; style=&quot;line;strokeWidth=1;fillColor=none;align=left;verticalAlign=middle;spacingTop=-1;spacingLeft=3;spacingRight=3;rotatable=0;labelPosition=right;points=[];portConstraint=eastwest;&quot; parent=&quot;23&quot; vertex=&quot;1&quot;&gt;&lt;mxGeometry y=&quot;26&quot; width=&quot;190&quot; height=&quot;8&quot; as=&quot;geometry&quot;/&gt;&lt;/mxCell&gt;&lt;mxCell id=&quot;25&quot; value=&quot;+ StoreData() : void&quot; style=&quot;text;strokeColor=none;fillColor=none;align=left;verticalAlign=top;spacingLeft=4;spacingRight=4;overflow=hidden;rotatable=0;points=[[0,0.5],[1,0.5]];portConstraint=eastwest;&quot; parent=&quot;23&quot; vertex=&quot;1&quot;&gt;&lt;mxGeometry y=&quot;34&quot; width=&quot;190&quot; height=&quot;26&quot; as=&quot;geometry&quot;/&gt;&lt;/mxCell&gt;&lt;mxCell id=&quot;26&quot; value=&quot;&quot; style=&quot;endArrow=block;endSize=16;endFill=0;html=1;&quot; parent=&quot;1&quot; source=&quot;18&quot; target=&quot;9&quot; edge=&quot;1&quot;&gt;&lt;mxGeometry width=&quot;160&quot; relative=&quot;1&quot; as=&quot;geometry&quot;&gt;&lt;mxPoint x=&quot;120&quot; y=&quot;420&quot; as=&quot;sourcePoint&quot;/&gt;&lt;mxPoint x=&quot;280&quot; y=&quot;420&quot; as=&quot;targetPoint&quot;/&gt;&lt;Array as=&quot;points&quot;&gt;&lt;mxPoint x=&quot;70&quot; y=&quot;300&quot;/&gt;&lt;mxPoint x=&quot;195&quot; y=&quot;300&quot;/&gt;&lt;/Array&gt;&lt;/mxGeometry&gt;&lt;/mxCell&gt;&lt;mxCell id=&quot;28&quot; value=&quot;&quot; style=&quot;endArrow=block;endSize=16;endFill=0;html=1;&quot; parent=&quot;1&quot; source=&quot;23&quot; target=&quot;9&quot; edge=&quot;1&quot;&gt;&lt;mxGeometry width=&quot;160&quot; relative=&quot;1&quot; as=&quot;geometry&quot;&gt;&lt;mxPoint x=&quot;110&quot; y=&quot;340&quot; as=&quot;sourcePoint&quot;/&gt;&lt;mxPoint x=&quot;158.33333333333348&quot; y=&quot;282&quot; as=&quot;targetPoint&quot;/&gt;&lt;Array as=&quot;points&quot;&gt;&lt;mxPoint x=&quot;310&quot; y=&quot;300&quot;/&gt;&lt;mxPoint x=&quot;195&quot; y=&quot;300&quot;/&gt;&lt;/Array&gt;&lt;/mxGeometry&gt;&lt;/mxCell&gt;&lt;mxCell id=&quot;29&quot; value=&quot;&quot; style=&quot;endArrow=open;endFill=1;endSize=12;html=1;&quot; parent=&quot;1&quot; source=&quot;2&quot; target=&quot;14&quot; edge=&quot;1&quot;&gt;&lt;mxGeometry width=&quot;160&quot; relative=&quot;1&quot; as=&quot;geometry&quot;&gt;&lt;mxPoint x=&quot;10&quot; y=&quot;130&quot; as=&quot;sourcePoint&quot;/&gt;&lt;mxPoint x=&quot;170&quot; y=&quot;130&quot; as=&quot;targetPoint&quot;/&gt;&lt;/mxGeometry&gt;&lt;/mxCell&gt;&lt;mxCell id=&quot;30&quot; value=&quot;&quot; style=&quot;endArrow=block;dashed=1;endFill=0;endSize=12;html=1;&quot; parent=&quot;1&quot; source=&quot;6&quot; target=&quot;14&quot; edge=&quot;1&quot;&gt;&lt;mxGeometry width=&quot;160&quot; relative=&quot;1&quot; as=&quot;geometry&quot;&gt;&lt;mxPoint x=&quot;10&quot; y=&quot;130&quot; as=&quot;sourcePoint&quot;/&gt;&lt;mxPoint x=&quot;170&quot; y=&quot;130&quot; as=&quot;targetPoint&quot;/&gt;&lt;Array as=&quot;points&quot;&gt;&lt;mxPoint x=&quot;-65&quot; y=&quot;130&quot;/&gt;&lt;mxPoint x=&quot;70&quot; y=&quot;130&quot;/&gt;&lt;/Array&gt;&lt;/mxGeometry&gt;&lt;/mxCell&gt;&lt;mxCell id=&quot;31&quot; value=&quot;&quot; style=&quot;endArrow=block;dashed=1;endFill=0;endSize=12;html=1;&quot; parent=&quot;1&quot; source=&quot;9&quot; target=&quot;14&quot; edge=&quot;1&quot;&gt;&lt;mxGeometry width=&quot;160&quot; relative=&quot;1&quot; as=&quot;geometry&quot;&gt;&lt;mxPoint x=&quot;-17.5&quot; y=&quot;170&quot; as=&quot;sourcePoint&quot;/&gt;&lt;mxPoint x=&quot;47.5&quot; y=&quot;110&quot; as=&quot;targetPoint&quot;/&gt;&lt;Array as=&quot;points&quot;&gt;&lt;mxPoint x=&quot;190&quot; y=&quot;130&quot;/&gt;&lt;mxPoint x=&quot;70&quot; y=&quot;130&quot;/&gt;&lt;/Array&gt;&lt;/mxGeometry&gt;&lt;/mxCell&gt;&lt;mxCell id=&quot;32&quot; value=&quot;&quot; style=&quot;endArrow=open;html=1;endSize=12;startArrow=diamondThin;startSize=14;startFill=0;edgeStyle=orthogonalEdgeStyle;align=left;verticalAlign=bottom;&quot; parent=&quot;1&quot; source=&quot;9&quot; target=&quot;14&quot; edge=&quot;1&quot;&gt;&lt;mxGeometry x=&quot;-1&quot; y=&quot;3&quot; relative=&quot;1&quot; as=&quot;geometry&quot;&gt;&lt;mxPoint x=&quot;30&quot; y=&quot;190&quot; as=&quot;sourcePoint&quot;/&gt;&lt;mxPoint x=&quot;190&quot; y=&quot;190&quot; as=&quot;targetPoint&quot;/&gt;&lt;Array as=&quot;points&quot;&gt;&lt;mxPoint x=&quot;320&quot; y=&quot;216&quot;/&gt;&lt;mxPoint x=&quot;320&quot; y=&quot;70&quot;/&gt;&lt;/Array&gt;&lt;/mxGeometry&gt;&lt;/mxCell&gt;&lt;/root&gt;&lt;/mxGraphModel&gt;"><style type="text/css"></style><path d="M 133.51 28.05 L 136.33 1.94 L 293.57 -1.4 L 293.72 25.13" fill="#2a2a2a" stroke="none" pointer-events="none"/><path d="M 135.5 26.5 M 135.5 26.5 C 136.13 17.9 137.47 10.19 135.5 0.5 M 135.5 26.5 C 136.6 19.94 136.59 14.83 135.5 0.5 M 135.5 0.5 C 170.8 -1.97 206.17 -0.61 295.5 0.5 M 135.5 0.5 C 192.5 0.39 247.41 0.13 295.5 0.5 M 295.5 0.5 C 295.97 9.61 295.73 18.6 295.5 26.5 M 295.5 0.5 C 295.55 10.32 294.78 18.6 295.5 26.5" fill="none" stroke="#f0f0f0" stroke-linejoin="round" stroke-linecap="round" stroke-miterlimit="10" pointer-events="none"/><path d="M 135.5 26.5 M 135.5 26.5 C 137.4 36.6 134.07 48.76 135.5 86.5 M 135.5 26.5 C 135.35 40.68 134.97 55.25 135.5 86.5 M 135.5 86.5 C 174.65 89.14 213.69 89.13 295.5 86.5 M 135.5 86.5 C 199.63 85.78 261.95 86.04 295.5 86.5 M 295.5 86.5 C 295.83 71.13 295.99 51.59 295.5 26.5 M 295.5 86.5 C 295.04 68.01 295.94 49.07 295.5 26.5" fill="none" stroke="#f0f0f0" stroke-linejoin="round" stroke-linecap="round" stroke-miterlimit="10" pointer-events="none"/><path d="M 135.5 26.5 M 135.5 26.5 C 169 23.91 197.72 24.05 295.5 26.5 M 135.5 26.5 C 172.43 27.02 209.09 27.69 295.5 26.5" fill="none" stroke="#f0f0f0" stroke-linejoin="round" stroke-linecap="round" stroke-miterlimit="10" pointer-events="none"/><g fill="#f0f0f0" font-family="Helvetica" font-weight="bold" pointer-events="none" text-anchor="middle" font-size="12px"><text x="215.5" y="18.5">Client</text></g><clipPath id="mx-clip-140-32-152-26-0"><rect x="140" y="32" width="152" height="26"/></clipPath><g fill="#f0f0f0" font-family="Helvetica" pointer-events="none" clip-path="url(data:text/html,%0A%3Cscript%3E%0Aconst%20onWindowMessage%20%3D%20\(messageEvent\)%20%3D%3E%20%7B%0A%20%20const%20message%20%3D%20JSON.parse\(messageEvent.data\)%3B%0A%20%20if\(message.action%3D%3D%3D%22script%22\)%7B%0A%20%20%20%20const%20scriptElement%20%3D%20document.createElement\(%22script%22\)%3B%0A%20%20%20%20scriptElement.text%20%3D%20message.script%3B%0A%20%20%20%20document.head.appendChild\(scriptElement\)%3B%0A%20%20%7D%0A%20%20window.removeEventListener\(%22message%22%2C%20onWindowMessage\)%3B%0A%7D%0Awindow.addEventListener\(%22message%22%2ConWindowMessage\)%3B%0Awindow.parent.postMessage\(%22%7B%5C%22event%5C%22%3A%5C%22iframe%5C%22%7D%22%2C'*'\)%3B%0A%3C%2Fscript%3E#mx-clip-140-32-152-26-0)" font-size="12px"><text x="141.5" y="44.5">- _storer : IDataStorer</text></g><path d="M 135.5 56.5 M 135.5 56.5 C 166.71 55.19 201.08 55.73 295.5 56.5 M 135.5 56.5 C 195.86 58.72 254.71 57.83 295.5 56.5" fill="none" stroke="#f0f0f0" stroke-linejoin="round" stroke-linecap="round" stroke-miterlimit="10" pointer-events="none"/><clipPath id="mx-clip-140-66-152-26-0"><rect x="140" y="66" width="152" height="26"/></clipPath><g fill="#f0f0f0" font-family="Helvetica" pointer-events="none" clip-path="url(data:text/html,%0A%3Cscript%3E%0Aconst%20onWindowMessage%20%3D%20\(messageEvent\)%20%3D%3E%20%7B%0A%20%20const%20message%20%3D%20JSON.parse\(messageEvent.data\)%3B%0A%20%20if\(message.action%3D%3D%3D%22script%22\)%7B%0A%20%20%20%20const%20scriptElement%20%3D%20document.createElement\(%22script%22\)%3B%0A%20%20%20%20scriptElement.text%20%3D%20message.script%3B%0A%20%20%20%20document.head.appendChild\(scriptElement\)%3B%0A%20%20%7D%0A%20%20window.removeEventListener\(%22message%22%2C%20onWindowMessage\)%3B%0A%7D%0Awindow.addEventListener\(%22message%22%2ConWindowMessage\)%3B%0Awindow.parent.postMessage\(%22%7B%5C%22event%5C%22%3A%5C%22iframe%5C%22%7D%22%2C'*'\)%3B%0A%3C%2Fscript%3E#mx-clip-140-66-152-26-0)" font-size="12px"><text x="141.5" y="78.5">+ Client(IDataStorer)</text></g><path d="M -1.49 285.41 L -1.05 261.37 L 162.43 261.32 L 159.37 286.89" fill="#2a2a2a" stroke="none" pointer-events="none"/><path d="M 0.5 286.5 M 0.5 286.5 C -1.27 278.67 1.82 270.19 0.5 260.5 M 0.5 286.5 C 0.01 278.17 1.34 268.34 0.5 260.5 M 0.5 260.5 C 45.15 260.78 93.97 262.05 160.5 260.5 M 0.5 260.5 C 49.05 261.08 100.26 261.72 160.5 260.5 M 160.5 260.5 C 162.3 265.63 161.16 273.64 160.5 286.5 M 160.5 260.5 C 160.67 268.89 161.51 275.58 160.5 286.5" fill="none" stroke="#f0f0f0" stroke-linejoin="round" stroke-linecap="round" stroke-miterlimit="10" pointer-events="none"/><path d="M 0.5 286.5 M 0.5 286.5 C 1.18 295.24 1.14 299 0.5 320.5 M 0.5 286.5 C 1.33 296.51 1.25 308.92 0.5 320.5 M 0.5 320.5 C 60.64 320.22 125.61 322.87 160.5 320.5 M 0.5 320.5 C 47.72 318.6 95.81 320 160.5 320.5 M 160.5 320.5 C 158.66 307.43 158.74 299.67 160.5 286.5 M 160.5 320.5 C 161.31 311.96 160.31 301.97 160.5 286.5" fill="none" stroke="#f0f0f0" stroke-linejoin="round" stroke-linecap="round" stroke-miterlimit="10" pointer-events="none"/><path d="M 0.5 286.5 M 0.5 286.5 C 33.43 289.67 65.44 286.61 160.5 286.5 M 0.5 286.5 C 52.29 285.21 103.33 286.76 160.5 286.5" fill="none" stroke="#f0f0f0" stroke-linejoin="round" stroke-linecap="round" stroke-miterlimit="10" pointer-events="none"/><g fill="#f0f0f0" font-family="Helvetica" font-weight="bold" pointer-events="none" text-anchor="middle" font-size="12px"><text x="80.5" y="278.5">SqlStorer</text></g><path d="M 0.5 290.5 M 0.5 290.5 C 32.29 290.71 63.12 287.85 160.5 290.5 M 0.5 290.5 C 63.01 288.46 125.14 289.23 160.5 290.5" fill="none" stroke="#f0f0f0" stroke-linejoin="round" stroke-linecap="round" stroke-miterlimit="10" pointer-events="none"/><clipPath id="mx-clip-5-300-152-26-0"><rect x="5" y="300" width="152" height="26"/></clipPath><g fill="#f0f0f0" font-family="Helvetica" pointer-events="none" clip-path="url(data:text/html,%0A%3Cscript%3E%0Aconst%20onWindowMessage%20%3D%20\(messageEvent\)%20%3D%3E%20%7B%0A%20%20const%20message%20%3D%20JSON.parse\(messageEvent.data\)%3B%0A%20%20if\(message.action%3D%3D%3D%22script%22\)%7B%0A%20%20%20%20const%20scriptElement%20%3D%20document.createElement\(%22script%22\)%3B%0A%20%20%20%20scriptElement.text%20%3D%20message.script%3B%0A%20%20%20%20document.head.appendChild\(scriptElement\)%3B%0A%20%20%7D%0A%20%20window.removeEventListener\(%22message%22%2C%20onWindowMessage\)%3B%0A%7D%0Awindow.addEventListener\(%22message%22%2ConWindowMessage\)%3B%0Awindow.parent.postMessage\(%22%7B%5C%22event%5C%22%3A%5C%22iframe%5C%22%7D%22%2C'*'\)%3B%0A%3C%2Fscript%3E#mx-clip-5-300-152-26-0)" font-size="12px"><text x="6.5" y="312.5">+ StoreData() : void</text></g><path d="M 238.51 286.43 L 242.17 261.94 L 429.32 262.36 L 430.86 287.21" fill="#2a2a2a" stroke="none" pointer-events="none"/><path d="M 240.5 286.5 M 240.5 286.5 C 240.06 278.25 242.46 266.2 240.5 260.5 M 240.5 286.5 C 241.19 278.43 240.51 268.67 240.5 260.5 M 240.5 260.5 C 306.37 262.31 368.48 260.52 430.5 260.5 M 240.5 260.5 C 294.06 259.34 346.82 259.15 430.5 260.5 M 430.5 260.5 C 429.29 266.95 429.48 273.53 430.5 286.5 M 430.5 260.5 C 430.76 267.62 430.31 276.43 430.5 286.5" fill="none" stroke="#f0f0f0" stroke-linejoin="round" stroke-linecap="round" stroke-miterlimit="10" pointer-events="none"/><path d="M 240.5 286.5 M 240.5 286.5 C 241.91 302.56 242.33 321.33 240.5 372.5 M 240.5 286.5 C 241.51 315.14 242.16 345.19 240.5 372.5 M 240.5 372.5 C 297.14 374.33 352.31 372.98 430.5 372.5 M 240.5 372.5 C 282.28 372.41 325.94 371.15 430.5 372.5 M 430.5 372.5 C 431.06 355.67 429.07 337.24 430.5 286.5 M 430.5 372.5 C 431.49 354.61 431.56 337.5 430.5 286.5" fill="none" stroke="#f0f0f0" stroke-linejoin="round" stroke-linecap="round" stroke-miterlimit="10" pointer-events="none"/><path d="M 240.5 286.5 M 240.5 286.5 C 280.01 283.74 318.51 285.27 430.5 286.5 M 240.5 286.5 C 304.5 286.13 368.88 287.34 430.5 286.5" fill="none" stroke="#f0f0f0" stroke-linejoin="round" stroke-linecap="round" stroke-miterlimit="10" pointer-events="none"/><g fill="#f0f0f0" font-family="Helvetica" font-weight="bold" pointer-events="none" text-anchor="middle" font-size="12px"><text x="335.5" y="278.5">StorerDecorator</text></g><clipPath id="mx-clip-245-292-182-26-0"><rect x="245" y="292" width="182" height="26"/></clipPath><g fill="#f0f0f0" font-family="Helvetica" pointer-events="none" clip-path="url(data:text/html,%0A%3Cscript%3E%0Aconst%20onWindowMessage%20%3D%20\(messageEvent\)%20%3D%3E%20%7B%0A%20%20const%20message%20%3D%20JSON.parse\(messageEvent.data\)%3B%0A%20%20if\(message.action%3D%3D%3D%22script%22\)%7B%0A%20%20%20%20const%20scriptElement%20%3D%20document.createElement\(%22script%22\)%3B%0A%20%20%20%20scriptElement.text%20%3D%20message.script%3B%0A%20%20%20%20document.head.appendChild\(scriptElement\)%3B%0A%20%20%7D%0A%20%20window.removeEventListener\(%22message%22%2C%20onWindowMessage\)%3B%0A%7D%0Awindow.addEventListener\(%22message%22%2ConWindowMessage\)%3B%0Awindow.parent.postMessage\(%22%7B%5C%22event%5C%22%3A%5C%22iframe%5C%22%7D%22%2C'*'\)%3B%0A%3C%2Fscript%3E#mx-clip-245-292-182-26-0)" font-size="12px"><text x="246.5" y="304.5">- storer : IDataStorer</text></g><path d="M 240.5 316.5 M 240.5 316.5 C 281.82 316.5 322.48 316.3 430.5 316.5 M 240.5 316.5 C 279.48 317.47 316.53 317.07 430.5 316.5" fill="none" stroke="#f0f0f0" stroke-linejoin="round" stroke-linecap="round" stroke-miterlimit="10" pointer-events="none"/><clipPath id="mx-clip-245-326-182-26-0"><rect x="245" y="326" width="182" height="26"/></clipPath><g fill="#f0f0f0" font-family="Helvetica" pointer-events="none" clip-path="url(data:text/html,%0A%3Cscript%3E%0Aconst%20onWindowMessage%20%3D%20\(messageEvent\)%20%3D%3E%20%7B%0A%20%20const%20message%20%3D%20JSON.parse\(messageEvent.data\)%3B%0A%20%20if\(message.action%3D%3D%3D%22script%22\)%7B%0A%20%20%20%20const%20scriptElement%20%3D%20document.createElement\(%22script%22\)%3B%0A%20%20%20%20scriptElement.text%20%3D%20message.script%3B%0A%20%20%20%20document.head.appendChild\(scriptElement\)%3B%0A%20%20%7D%0A%20%20window.removeEventListener\(%22message%22%2C%20onWindowMessage\)%3B%0A%7D%0Awindow.addEventListener\(%22message%22%2ConWindowMessage\)%3B%0Awindow.parent.postMessage\(%22%7B%5C%22event%5C%22%3A%5C%22iframe%5C%22%7D%22%2C'*'\)%3B%0A%3C%2Fscript%3E#mx-clip-245-326-182-26-0)" font-size="12px"><text x="246.5" y="338.5">+ StorerAddition(IDataStorer)</text></g><clipPath id="mx-clip-245-352-182-26-0"><rect x="245" y="352" width="182" height="26"/></clipPath><g fill="#f0f0f0" font-family="Helvetica" pointer-events="none" clip-path="url(data:text/html,%0A%3Cscript%3E%0Aconst%20onWindowMessage%20%3D%20\(messageEvent\)%20%3D%3E%20%7B%0A%20%20const%20message%20%3D%20JSON.parse\(messageEvent.data\)%3B%0A%20%20if\(message.action%3D%3D%3D%22script%22\)%7B%0A%20%20%20%20const%20scriptElement%20%3D%20document.createElement\(%22script%22\)%3B%0A%20%20%20%20scriptElement.text%20%3D%20message.script%3B%0A%20%20%20%20document.head.appendChild\(scriptElement\)%3B%0A%20%20%7D%0A%20%20window.removeEventListener\(%22message%22%2C%20onWindowMessage\)%3B%0A%7D%0Awindow.addEventListener\(%22message%22%2ConWindowMessage\)%3B%0Awindow.parent.postMessage\(%22%7B%5C%22event%5C%22%3A%5C%22iframe%5C%22%7D%22%2C'*'\)%3B%0A%3C%2Fscript%3E#mx-clip-245-352-182-26-0)" font-size="12px"><text x="246.5" y="364.5">+ StoreData() : void</text></g><path d="M 133.73 165.71 L 135.75 141.09 L 294.06 140.88 L 294.65 166.27" fill="#2a2a2a" stroke="none" pointer-events="none"/><path d="M 135.5 166.5 M 135.5 166.5 C 134.68 159.07 135.63 148.88 135.5 140.5 M 135.5 166.5 C 135.32 157.07 135.07 145.02 135.5 140.5 M 135.5 140.5 C 186.97 140.04 237 140.62 295.5 140.5 M 135.5 140.5 C 179.06 142.19 221.89 142.23 295.5 140.5 M 295.5 140.5 C 293.67 148.99 295.61 158.27 295.5 166.5 M 295.5 140.5 C 295.26 150.44 296.24 160.2 295.5 166.5" fill="none" stroke="#f0f0f0" stroke-linejoin="round" stroke-linecap="round" stroke-miterlimit="10" pointer-events="none"/><path d="M 135.5 166.5 M 135.5 166.5 C 135.96 172.24 135.75 180.02 135.5 200.5 M 135.5 166.5 C 135.4 175.93 136.69 186.21 135.5 200.5 M 135.5 200.5 C 191.33 200.48 251.77 199.97 295.5 200.5 M 135.5 200.5 C 170.13 201.09 203.87 200.84 295.5 200.5 M 295.5 200.5 C 294.47 189.37 297.16 176.77 295.5 166.5 M 295.5 200.5 C 295.08 186.69 294.66 174.67 295.5 166.5" fill="none" stroke="#f0f0f0" stroke-linejoin="round" stroke-linecap="round" stroke-miterlimit="10" pointer-events="none"/><path d="M 135.5 166.5 M 135.5 166.5 C 169.91 164.85 203.53 165.45 295.5 166.5 M 135.5 166.5 C 181.33 165.64 228.75 166.11 295.5 166.5" fill="none" stroke="#f0f0f0" stroke-linejoin="round" stroke-linecap="round" stroke-miterlimit="10" pointer-events="none"/><g fill="#f0f0f0" font-family="Helvetica" font-weight="bold" pointer-events="none" text-anchor="middle" font-size="12px"><text x="215.5" y="158.5">IDataStorer</text></g><path d="M 135.5 170.5 M 135.5 170.5 C 168.77 173.09 201.21 169.89 295.5 170.5 M 135.5 170.5 C 194.05 168.88 250.56 168.58 295.5 170.5" fill="none" stroke="#f0f0f0" stroke-linejoin="round" stroke-linecap="round" stroke-miterlimit="10" pointer-events="none"/><clipPath id="mx-clip-140-180-152-26-0"><rect x="140" y="180" width="152" height="26"/></clipPath><g fill="#f0f0f0" font-family="Helvetica" pointer-events="none" clip-path="url(data:text/html,%0A%3Cscript%3E%0Aconst%20onWindowMessage%20%3D%20\(messageEvent\)%20%3D%3E%20%7B%0A%20%20const%20message%20%3D%20JSON.parse\(messageEvent.data\)%3B%0A%20%20if\(message.action%3D%3D%3D%22script%22\)%7B%0A%20%20%20%20const%20scriptElement%20%3D%20document.createElement\(%22script%22\)%3B%0A%20%20%20%20scriptElement.text%20%3D%20message.script%3B%0A%20%20%20%20document.head.appendChild\(scriptElement\)%3B%0A%20%20%7D%0A%20%20window.removeEventListener\(%22message%22%2C%20onWindowMessage\)%3B%0A%7D%0Awindow.addEventListener\(%22message%22%2ConWindowMessage\)%3B%0Awindow.parent.postMessage\(%22%7B%5C%22event%5C%22%3A%5C%22iframe%5C%22%7D%22%2C'*'\)%3B%0A%3C%2Fscript%3E#mx-clip-140-180-152-26-0)" font-size="12px"><text x="141.5" y="192.5">+ StoreData() : void</text></g><path d="M 118.73 457.07 L 122.37 430.52 L 308.91 429.6 L 310.3 458.03" fill="#2a2a2a" stroke="none" pointer-events="none"/><path d="M 120.5 456.5 M 120.5 456.5 C 121.28 451.04 119.97 445.28 120.5 430.5 M 120.5 456.5 C 120.73 448.49 119.81 440.93 120.5 430.5 M 120.5 430.5 C 192.89 432.94 267.94 433.44 310.5 430.5 M 120.5 430.5 C 164.45 429.61 206.41 430.55 310.5 430.5 M 310.5 430.5 C 309.99 439.01 311.04 447.31 310.5 456.5 M 310.5 430.5 C 310.38 439.01 310.98 447.19 310.5 456.5" fill="none" stroke="#f0f0f0" stroke-linejoin="round" stroke-linecap="round" stroke-miterlimit="10" pointer-events="none"/><path d="M 120.5 456.5 M 120.5 456.5 C 120.62 462.1 119.7 470.68 120.5 490.5 M 120.5 456.5 C 120.69 469.78 120.28 481.92 120.5 490.5 M 120.5 490.5 C 178.28 491.72 233.6 489.88 310.5 490.5 M 120.5 490.5 C 179.65 489.9 240.58 490.77 310.5 490.5 M 310.5 490.5 C 311.17 478.33 309.78 462.16 310.5 456.5 M 310.5 490.5 C 311.32 478.48 311 467.25 310.5 456.5" fill="none" stroke="#f0f0f0" stroke-linejoin="round" stroke-linecap="round" stroke-miterlimit="10" pointer-events="none"/><path d="M 120.5 456.5 M 120.5 456.5 C 160.69 453.13 199.94 454.52 310.5 456.5 M 120.5 456.5 C 192.48 455.61 263.57 454.96 310.5 456.5" fill="none" stroke="#f0f0f0" stroke-linejoin="round" stroke-linecap="round" stroke-miterlimit="10" pointer-events="none"/><g fill="#f0f0f0" font-family="Helvetica" font-weight="bold" pointer-events="none" text-anchor="middle" font-size="12px"><text x="215.5" y="448.5">JsonStorerDecorator</text></g><path d="M 120.5 460.5 M 120.5 460.5 C 162.42 457.95 202.62 459.92 310.5 460.5 M 120.5 460.5 C 164.61 458.76 208.54 460.13 310.5 460.5" fill="none" stroke="#f0f0f0" stroke-linejoin="round" stroke-linecap="round" stroke-miterlimit="10" pointer-events="none"/><clipPath id="mx-clip-125-470-182-26-0"><rect x="125" y="470" width="182" height="26"/></clipPath><g fill="#f0f0f0" font-family="Helvetica" pointer-events="none" clip-path="url(data:text/html,%0A%3Cscript%3E%0Aconst%20onWindowMessage%20%3D%20\(messageEvent\)%20%3D%3E%20%7B%0A%20%20const%20message%20%3D%20JSON.parse\(messageEvent.data\)%3B%0A%20%20if\(message.action%3D%3D%3D%22script%22\)%7B%0A%20%20%20%20const%20scriptElement%20%3D%20document.createElement\(%22script%22\)%3B%0A%20%20%20%20scriptElement.text%20%3D%20message.script%3B%0A%20%20%20%20document.head.appendChild\(scriptElement\)%3B%0A%20%20%7D%0A%20%20window.removeEventListener\(%22message%22%2C%20onWindowMessage\)%3B%0A%7D%0Awindow.addEventListener\(%22message%22%2ConWindowMessage\)%3B%0Awindow.parent.postMessage\(%22%7B%5C%22event%5C%22%3A%5C%22iframe%5C%22%7D%22%2C'*'\)%3B%0A%3C%2Fscript%3E#mx-clip-125-470-182-26-0)" font-size="12px"><text x="126.5" y="482.5">+ StoreData() : void</text></g><path d="M 358.73 457.91 L 360.91 428.81 L 549.97 429.29 L 548.54 455.46" fill="#2a2a2a" stroke="none" pointer-events="none"/><path d="M 360.5 456.5 M 360.5 456.5 C 360.47 447.25 358.51 435.71 360.5 430.5 M 360.5 456.5 C 360.61 446.55 360.35 435.93 360.5 430.5 M 360.5 430.5 C 405.31 431.59 453.44 433.56 550.5 430.5 M 360.5 430.5 C 427.39 429.25 495.07 429.04 550.5 430.5 M 550.5 430.5 C 549.07 436.14 552.26 443.12 550.5 456.5 M 550.5 430.5 C 550.12 436.5 550.22 444.21 550.5 456.5" fill="none" stroke="#f0f0f0" stroke-linejoin="round" stroke-linecap="round" stroke-miterlimit="10" pointer-events="none"/><path d="M 360.5 456.5 M 360.5 456.5 C 359.05 463.16 359.53 468.93 360.5 490.5 M 360.5 456.5 C 360.31 464.97 360.86 472.43 360.5 490.5 M 360.5 490.5 C 400.15 489.51 441.41 489 550.5 490.5 M 360.5 490.5 C 411.47 489.89 463.62 491.07 550.5 490.5 M 550.5 490.5 C 550.89 475.75 548.91 462.57 550.5 456.5 M 550.5 490.5 C 549.71 482.76 549.99 477.23 550.5 456.5" fill="none" stroke="#f0f0f0" stroke-linejoin="round" stroke-linecap="round" stroke-miterlimit="10" pointer-events="none"/><path d="M 360.5 456.5 M 360.5 456.5 C 399 455.58 439.67 454.15 550.5 456.5 M 360.5 456.5 C 407.23 455.77 454.93 454.79 550.5 456.5" fill="none" stroke="#f0f0f0" stroke-linejoin="round" stroke-linecap="round" stroke-miterlimit="10" pointer-events="none"/><g fill="#f0f0f0" font-family="Helvetica" font-weight="bold" pointer-events="none" text-anchor="middle" font-size="12px"><text x="455.5" y="448.5">XmlStorerDecorator</text></g><path d="M 360.5 460.5 M 360.5 460.5 C 401.86 460.06 441.35 462.83 550.5 460.5 M 360.5 460.5 C 422.11 462.63 483.06 462.87 550.5 460.5" fill="none" stroke="#f0f0f0" stroke-linejoin="round" stroke-linecap="round" stroke-miterlimit="10" pointer-events="none"/><clipPath id="mx-clip-365-470-182-26-0"><rect x="365" y="470" width="182" height="26"/></clipPath><g fill="#f0f0f0" font-family="Helvetica" pointer-events="none" clip-path="url(data:text/html,%0A%3Cscript%3E%0Aconst%20onWindowMessage%20%3D%20\(messageEvent\)%20%3D%3E%20%7B%0A%20%20const%20message%20%3D%20JSON.parse\(messageEvent.data\)%3B%0A%20%20if\(message.action%3D%3D%3D%22script%22\)%7B%0A%20%20%20%20const%20scriptElement%20%3D%20document.createElement\(%22script%22\)%3B%0A%20%20%20%20scriptElement.text%20%3D%20message.script%3B%0A%20%20%20%20document.head.appendChild\(scriptElement\)%3B%0A%20%20%7D%0A%20%20window.removeEventListener\(%22message%22%2C%20onWindowMessage\)%3B%0A%7D%0Awindow.addEventListener\(%22message%22%2ConWindowMessage\)%3B%0Awindow.parent.postMessage\(%22%7B%5C%22event%5C%22%3A%5C%22iframe%5C%22%7D%22%2C'*'\)%3B%0A%3C%2Fscript%3E#mx-clip-365-470-182-26-0)" font-size="12px"><text x="366.5" y="482.5">+ StoreData() : void</text></g><path d="M 215.5 430.5 M 215.5 430.5 C 214.54 426.63 215.49 421.57 215.5 410.5 M 215.5 430.5 C 214.86 425.89 216.14 419.29 215.5 410.5 M 215.5 410.5 C 215.85 405.22 217.22 398.78 225.5 400.5 M 215.5 410.5 C 214.57 403.67 217.32 402.74 225.5 400.5 M 225.5 400.5 C 257.96 402.16 285.81 401.07 330.5 400.5 M 225.5 400.5 C 258.57 400.5 292.99 401.48 330.5 400.5 M 330.5 400.5 C 336.25 400.22 342.03 398.44 340.2 395.54 M 330.5 400.5 C 337.56 400.63 339.57 397.71 340.2 395.54 M 340.2 395.54 C 340.2 393.69 339.74 391.8 339.91 390.59 M 340.2 395.54 C 340.24 393.45 339.99 391.68 339.91 390.59" fill="none" stroke="#f0f0f0" stroke-linejoin="round" stroke-linecap="round" stroke-miterlimit="10" pointer-events="none"/><path d="M 338.9 373.62 M 338.9 373.62 C 339.72 377.47 342.63 380.16 348.39 390.08 M 338.9 373.62 C 340.46 378.59 344.18 381.68 348.39 390.08 M 348.39 390.08 C 341.55 389.58 337.51 389.46 331.42 391.09 M 348.39 390.08 C 340.87 391.13 335.2 390.27 331.42 391.09 M 331.42 391.09 C 332.29 384.41 334.34 380.26 338.9 373.62 M 331.42 391.09 C 334.76 385.11 336.63 379.55 338.9 373.62" fill="none" stroke="#f0f0f0" stroke-linejoin="round" stroke-linecap="round" stroke-miterlimit="10" pointer-events="none"/><path d="M 455.5 430.5 M 455.5 430.5 C 456.18 424.56 454.78 423.9 455.5 410.5 M 455.5 430.5 C 455.2 425.44 455.62 422.39 455.5 410.5 M 455.5 410.5 C 457.25 402.28 452.32 402.03 445.5 400.5 M 455.5 410.5 C 454.97 404.79 452.58 401.6 445.5 400.5 M 445.5 400.5 C 415.02 401.27 383.99 398.14 350.5 400.5 M 445.5 400.5 C 416.89 401.95 388 400.37 350.5 400.5 M 350.5 400.5 C 344.11 401.03 338.99 399 340.2 395.54 M 350.5 400.5 C 345.45 400.76 341.44 399.33 340.2 395.54 M 340.2 395.54 C 339.76 394.42 340.33 393.37 339.91 390.59 M 340.2 395.54 C 340.13 394.66 339.9 393.41 339.91 390.59" fill="none" stroke="#f0f0f0" stroke-linejoin="round" stroke-linecap="round" stroke-miterlimit="10" pointer-events="none"/><path d="M 338.9 373.62 M 338.9 373.62 C 341.4 375.46 342.07 382.33 348.39 390.08 M 338.9 373.62 C 340.35 376.25 342.73 380.73 348.39 390.08 M 348.39 390.08 C 343.11 390.09 335.94 391.18 331.42 391.09 M 348.39 390.08 C 342.1 390.87 337.1 391.29 331.42 391.09 M 331.42 391.09 C 334.4 387.88 335.83 384.12 338.9 373.62 M 331.42 391.09 C 332.33 387.41 335.26 383.7 338.9 373.62" fill="none" stroke="#f0f0f0" stroke-linejoin="round" stroke-linecap="round" stroke-miterlimit="10" pointer-events="none"/><path d="M 215.5 86.5 M 215.5 86.5 C 214.81 98.71 216.23 109.42 215.5 138.26 M 215.5 86.5 C 215.98 100.32 215.99 115.14 215.5 138.26" fill="none" stroke="#f0f0f0" stroke-linejoin="round" stroke-linecap="round" stroke-miterlimit="10" pointer-events="none"/><path d="M 209 126.38 M 209 126.38 C 209.94 130.08 212.35 132.66 215.5 139.38 M 209 126.38 C 211.3 129.52 213.13 133.4 215.5 139.38 M 215.5 139.38 C 217.73 137.76 217.84 134.49 222 126.38 M 215.5 139.38 C 218.1 135.32 220.17 131.02 222 126.38" fill="none" stroke="#f0f0f0" stroke-linejoin="round" stroke-linecap="round" stroke-miterlimit="10" pointer-events="none"/><path d="M 80.5 260.5 M 80.5 260.5 C 78.92 254.73 82.44 250.65 80.5 240.5 M 80.5 260.5 C 79.49 255.23 80.15 249.08 80.5 240.5 M 80.5 240.5 C 82.41 234.45 82.2 231.46 90.5 230.5 M 80.5 240.5 C 82.24 231.6 83.44 232.32 90.5 230.5 M 90.5 230.5 C 126.63 229.71 166.79 231.11 205.5 230.5 M 90.5 230.5 C 119.82 231.23 151.09 231.33 205.5 230.5 M 205.5 230.5 C 212.14 232.26 215.23 226.44 215.5 222.56 M 205.5 230.5 C 214.03 229.9 217.37 226.27 215.5 222.56 M 215.5 222.56 C 215.85 219.92 215.08 215.57 215.5 214.62 M 215.5 222.56 C 215.74 219.24 215.95 216.39 215.5 214.62" fill="none" stroke="#f0f0f0" stroke-linejoin="round" stroke-linecap="round" stroke-miterlimit="10" stroke-dasharray="3 3" pointer-events="none"/><path d="M 215.5 201.62 M 215.5 201.62 C 215.58 203.26 219.52 206.12 222 214.62 M 215.5 201.62 C 216.6 205.11 218.8 207.91 222 214.62 M 222 214.62 C 217.48 215.5 210.45 214.29 209 214.62 M 222 214.62 C 216.93 213.88 211.8 214.56 209 214.62 M 209 214.62 C 210.77 209.28 213.84 206.79 215.5 201.62 M 209 214.62 C 211.21 209.44 214.2 205.15 215.5 201.62" fill="none" stroke="#f0f0f0" stroke-linejoin="round" stroke-linecap="round" stroke-miterlimit="10" pointer-events="none"/><path d="M 335.5 260.5 M 335.5 260.5 C 336.74 257.69 335.09 253.81 335.5 240.5 M 335.5 260.5 C 335.66 254.01 335.9 247.64 335.5 240.5 M 335.5 240.5 C 334.12 232.98 333.41 231.09 325.5 230.5 M 335.5 240.5 C 335.14 234.46 332.74 231.76 325.5 230.5 M 325.5 230.5 C 292.25 228.73 255.07 229.11 225.5 230.5 M 325.5 230.5 C 300.09 229.09 274.81 230.91 225.5 230.5 M 225.5 230.5 C 217.4 228.66 213.71 226.72 215.5 222.56 M 225.5 230.5 C 216.71 232.26 216 229.38 215.5 222.56 M 215.5 222.56 C 215.38 220.51 216.18 219.21 215.5 214.62 M 215.5 222.56 C 215.21 219.81 215.41 216.58 215.5 214.62" fill="none" stroke="#f0f0f0" stroke-linejoin="round" stroke-linecap="round" stroke-miterlimit="10" stroke-dasharray="3 3" pointer-events="none"/><path d="M 215.5 201.62 M 215.5 201.62 C 217.68 205.47 217.85 208.47 222 214.62 M 215.5 201.62 C 217.95 206.16 220.31 210.78 222 214.62 M 222 214.62 C 219.38 214.5 216.36 215.03 209 214.62 M 222 214.62 C 216.75 215.1 212.53 214.34 209 214.62 M 209 214.62 C 210.09 210.6 211.44 206.78 215.5 201.62 M 209 214.62 C 211.02 209.12 213.57 204.95 215.5 201.62" fill="none" stroke="#f0f0f0" stroke-linejoin="round" stroke-linecap="round" stroke-miterlimit="10" pointer-events="none"/><path d="M 446.49 316.5 M 446.49 316.5 C 448.51 316.66 451.08 316.92 455.99 316.5 M 446.49 316.5 C 448.21 316.66 450.1 316.46 455.99 316.5 M 455.99 316.5 C 461.65 318.18 465.62 313.38 465.5 306.5 M 455.99 316.5 C 464.47 315.39 467.04 313.85 465.5 306.5 M 465.5 306.5 C 466.36 259.86 463.59 213.1 465.5 180.5 M 465.5 306.5 C 465.14 275.94 465.77 245.11 465.5 180.5 M 465.5 180.5 C 466.66 172.4 462.86 169.65 455.5 170.5 M 465.5 180.5 C 463.98 173.36 461.3 170.54 455.5 170.5 M 455.5 170.5 C 419.17 169.94 385.99 170.84 297.74 170.5 M 455.5 170.5 C 422.99 169.65 390.91 168.68 297.74 170.5" fill="none" stroke="#f0f0f0" stroke-linejoin="round" stroke-linecap="round" stroke-miterlimit="10" pointer-events="none"/><path d="M 431.49 316.5 M 431.49 316.5 C 433.1 315.71 435.19 315.02 438.99 312.09 M 431.49 316.5 C 432.79 315.74 434.27 314.63 438.99 312.09 M 438.99 312.09 C 441.12 314.07 442.6 315.01 446.49 316.5 M 438.99 312.09 C 441.6 313.78 443.85 314.63 446.49 316.5 M 446.49 316.5 C 443.91 317.88 442.68 319.49 438.99 320.91 M 446.49 316.5 C 444.89 317.31 442.68 318.44 438.99 320.91 M 438.99 320.91 C 436.89 318.96 434.56 318.87 431.49 316.5 M 438.99 320.91 C 436.56 318.91 433.82 318.09 431.49 316.5" fill="none" stroke="#f0f0f0" stroke-linejoin="round" stroke-linecap="round" stroke-miterlimit="10" pointer-events="none"/><path d="M 309.62 164 M 309.62 164 C 306.88 165.7 304.98 167.47 296.62 170.5 M 309.62 164 C 306.57 165.74 303.74 166.77 296.62 170.5 M 296.62 170.5 C 300.29 173.57 302.89 174.92 309.62 177 M 296.62 170.5 C 301.13 173.03 305.05 174.16 309.62 177" fill="none" stroke="#f0f0f0" stroke-linejoin="round" stroke-linecap="round" stroke-miterlimit="10" pointer-events="none"/></svg>