<svg xmlns="http://www.w3.org/2000/svg" version="1.1" height="343.5px" width="551px" viewBox="-10 -10 571 363.5" content="&lt;mxGraphModel dx=&quot;1692&quot; dy=&quot;848&quot; grid=&quot;1&quot; gridSize=&quot;10&quot; guides=&quot;1&quot; tooltips=&quot;1&quot; connect=&quot;1&quot; arrows=&quot;1&quot; fold=&quot;1&quot; page=&quot;0&quot; pageScale=&quot;1&quot; pageWidth=&quot;850&quot; pageHeight=&quot;1100&quot; math=&quot;0&quot; shadow=&quot;0&quot;&gt;&lt;root&gt;&lt;mxCell id=&quot;0&quot;/&gt;&lt;mxCell id=&quot;1&quot; parent=&quot;0&quot;/&gt;&lt;mxCell id=&quot;2&quot; value=&quot;Printer&quot; style=&quot;swimlane;fontStyle=1;align=center;verticalAlign=top;childLayout=stackLayout;horizontal=1;startSize=26;horizontalStack=0;resizeParent=1;resizeParentMax=0;resizeLast=0;collapsible=1;marginBottom=0;&quot; parent=&quot;1&quot; vertex=&quot;1&quot;&gt;&lt;mxGeometry x=&quot;-250&quot; y=&quot;50&quot; width=&quot;160&quot; height=&quot;60&quot; as=&quot;geometry&quot;/&gt;&lt;/mxCell&gt;&lt;mxCell id=&quot;4&quot; value=&quot;&quot; style=&quot;line;strokeWidth=1;fillColor=none;align=left;verticalAlign=middle;spacingTop=-1;spacingLeft=3;spacingRight=3;rotatable=0;labelPosition=right;points=[];portConstraint=eastwest;&quot; parent=&quot;2&quot; vertex=&quot;1&quot;&gt;&lt;mxGeometry y=&quot;26&quot; width=&quot;160&quot; height=&quot;8&quot; as=&quot;geometry&quot;/&gt;&lt;/mxCell&gt;&lt;mxCell id=&quot;5&quot; value=&quot;+ Print() : void&quot; style=&quot;text;strokeColor=none;fillColor=none;align=left;verticalAlign=top;spacingLeft=4;spacingRight=4;overflow=hidden;rotatable=0;points=[[0,0.5],[1,0.5]];portConstraint=eastwest;&quot; parent=&quot;2&quot; vertex=&quot;1&quot;&gt;&lt;mxGeometry y=&quot;34&quot; width=&quot;160&quot; height=&quot;26&quot; as=&quot;geometry&quot;/&gt;&lt;/mxCell&gt;&lt;mxCell id=&quot;6&quot; value=&quot;Fax&quot; style=&quot;swimlane;fontStyle=1;align=center;verticalAlign=top;childLayout=stackLayout;horizontal=1;startSize=26;horizontalStack=0;resizeParent=1;resizeParentMax=0;resizeLast=0;collapsible=1;marginBottom=0;&quot; parent=&quot;1&quot; vertex=&quot;1&quot;&gt;&lt;mxGeometry x=&quot;-50&quot; y=&quot;50&quot; width=&quot;160&quot; height=&quot;60&quot; as=&quot;geometry&quot;/&gt;&lt;/mxCell&gt;&lt;mxCell id=&quot;7&quot; value=&quot;&quot; style=&quot;line;strokeWidth=1;fillColor=none;align=left;verticalAlign=middle;spacingTop=-1;spacingLeft=3;spacingRight=3;rotatable=0;labelPosition=right;points=[];portConstraint=eastwest;&quot; parent=&quot;6&quot; vertex=&quot;1&quot;&gt;&lt;mxGeometry y=&quot;26&quot; width=&quot;160&quot; height=&quot;8&quot; as=&quot;geometry&quot;/&gt;&lt;/mxCell&gt;&lt;mxCell id=&quot;8&quot; value=&quot;+ Fax() : void&quot; style=&quot;text;strokeColor=none;fillColor=none;align=left;verticalAlign=top;spacingLeft=4;spacingRight=4;overflow=hidden;rotatable=0;points=[[0,0.5],[1,0.5]];portConstraint=eastwest;&quot; parent=&quot;6&quot; vertex=&quot;1&quot;&gt;&lt;mxGeometry y=&quot;34&quot; width=&quot;160&quot; height=&quot;26&quot; as=&quot;geometry&quot;/&gt;&lt;/mxCell&gt;&lt;mxCell id=&quot;9&quot; value=&quot;Scanner&quot; style=&quot;swimlane;fontStyle=1;align=center;verticalAlign=top;childLayout=stackLayout;horizontal=1;startSize=26;horizontalStack=0;resizeParent=1;resizeParentMax=0;resizeLast=0;collapsible=1;marginBottom=0;&quot; parent=&quot;1&quot; vertex=&quot;1&quot;&gt;&lt;mxGeometry x=&quot;140&quot; y=&quot;50&quot; width=&quot;160&quot; height=&quot;60&quot; as=&quot;geometry&quot;/&gt;&lt;/mxCell&gt;&lt;mxCell id=&quot;10&quot; value=&quot;&quot; style=&quot;line;strokeWidth=1;fillColor=none;align=left;verticalAlign=middle;spacingTop=-1;spacingLeft=3;spacingRight=3;rotatable=0;labelPosition=right;points=[];portConstraint=eastwest;&quot; parent=&quot;9&quot; vertex=&quot;1&quot;&gt;&lt;mxGeometry y=&quot;26&quot; width=&quot;160&quot; height=&quot;8&quot; as=&quot;geometry&quot;/&gt;&lt;/mxCell&gt;&lt;mxCell id=&quot;11&quot; value=&quot;+ Scan() : void&quot; style=&quot;text;strokeColor=none;fillColor=none;align=left;verticalAlign=top;spacingLeft=4;spacingRight=4;overflow=hidden;rotatable=0;points=[[0,0.5],[1,0.5]];portConstraint=eastwest;&quot; parent=&quot;9&quot; vertex=&quot;1&quot;&gt;&lt;mxGeometry y=&quot;34&quot; width=&quot;160&quot; height=&quot;26&quot; as=&quot;geometry&quot;/&gt;&lt;/mxCell&gt;&lt;mxCell id=&quot;12&quot; value=&quot;Copier&quot; style=&quot;swimlane;fontStyle=1;align=center;verticalAlign=top;childLayout=stackLayout;horizontal=1;startSize=26;horizontalStack=0;resizeParent=1;resizeParentMax=0;resizeLast=0;collapsible=1;marginBottom=0;&quot; parent=&quot;1&quot; vertex=&quot;1&quot;&gt;&lt;mxGeometry x=&quot;-50&quot; y=&quot;200&quot; width=&quot;160&quot; height=&quot;190&quot; as=&quot;geometry&quot;/&gt;&lt;/mxCell&gt;&lt;mxCell id=&quot;13&quot; value=&quot;- _printer : Printer&quot; style=&quot;text;strokeColor=none;fillColor=none;align=left;verticalAlign=top;spacingLeft=4;spacingRight=4;overflow=hidden;rotatable=0;points=[[0,0.5],[1,0.5]];portConstraint=eastwest;&quot; parent=&quot;12&quot; vertex=&quot;1&quot;&gt;&lt;mxGeometry y=&quot;26&quot; width=&quot;160&quot; height=&quot;26&quot; as=&quot;geometry&quot;/&gt;&lt;/mxCell&gt;&lt;mxCell id=&quot;16&quot; value=&quot;- _fax : Fax&quot; style=&quot;text;strokeColor=none;fillColor=none;align=left;verticalAlign=top;spacingLeft=4;spacingRight=4;overflow=hidden;rotatable=0;points=[[0,0.5],[1,0.5]];portConstraint=eastwest;&quot; parent=&quot;12&quot; vertex=&quot;1&quot;&gt;&lt;mxGeometry y=&quot;52&quot; width=&quot;160&quot; height=&quot;26&quot; as=&quot;geometry&quot;/&gt;&lt;/mxCell&gt;&lt;mxCell id=&quot;17&quot; value=&quot;- _scanner : Scanner&quot; style=&quot;text;strokeColor=none;fillColor=none;align=left;verticalAlign=top;spacingLeft=4;spacingRight=4;overflow=hidden;rotatable=0;points=[[0,0.5],[1,0.5]];portConstraint=eastwest;&quot; parent=&quot;12&quot; vertex=&quot;1&quot;&gt;&lt;mxGeometry y=&quot;78&quot; width=&quot;160&quot; height=&quot;26&quot; as=&quot;geometry&quot;/&gt;&lt;/mxCell&gt;&lt;mxCell id=&quot;14&quot; value=&quot;&quot; style=&quot;line;strokeWidth=1;fillColor=none;align=left;verticalAlign=middle;spacingTop=-1;spacingLeft=3;spacingRight=3;rotatable=0;labelPosition=right;points=[];portConstraint=eastwest;&quot; parent=&quot;12&quot; vertex=&quot;1&quot;&gt;&lt;mxGeometry y=&quot;104&quot; width=&quot;160&quot; height=&quot;8&quot; as=&quot;geometry&quot;/&gt;&lt;/mxCell&gt;&lt;mxCell id=&quot;18&quot; value=&quot;+ Print() : void&quot; style=&quot;text;strokeColor=none;fillColor=none;align=left;verticalAlign=top;spacingLeft=4;spacingRight=4;overflow=hidden;rotatable=0;points=[[0,0.5],[1,0.5]];portConstraint=eastwest;&quot; parent=&quot;12&quot; vertex=&quot;1&quot;&gt;&lt;mxGeometry y=&quot;112&quot; width=&quot;160&quot; height=&quot;26&quot; as=&quot;geometry&quot;/&gt;&lt;/mxCell&gt;&lt;mxCell id=&quot;21&quot; value=&quot;+ Scan() : void&quot; style=&quot;text;strokeColor=none;fillColor=none;align=left;verticalAlign=top;spacingLeft=4;spacingRight=4;overflow=hidden;rotatable=0;points=[[0,0.5],[1,0.5]];portConstraint=eastwest;&quot; parent=&quot;12&quot; vertex=&quot;1&quot;&gt;&lt;mxGeometry y=&quot;138&quot; width=&quot;160&quot; height=&quot;26&quot; as=&quot;geometry&quot;/&gt;&lt;/mxCell&gt;&lt;mxCell id=&quot;19&quot; value=&quot;+ Fax() : void&quot; style=&quot;text;strokeColor=none;fillColor=none;align=left;verticalAlign=top;spacingLeft=4;spacingRight=4;overflow=hidden;rotatable=0;points=[[0,0.5],[1,0.5]];portConstraint=eastwest;&quot; parent=&quot;12&quot; vertex=&quot;1&quot;&gt;&lt;mxGeometry y=&quot;164&quot; width=&quot;160&quot; height=&quot;26&quot; as=&quot;geometry&quot;/&gt;&lt;/mxCell&gt;&lt;mxCell id=&quot;22&quot; value=&quot;&quot; style=&quot;endArrow=open;endFill=1;endSize=12;html=1;&quot; parent=&quot;1&quot; source=&quot;12&quot; target=&quot;6&quot; edge=&quot;1&quot;&gt;&lt;mxGeometry width=&quot;160&quot; relative=&quot;1&quot; as=&quot;geometry&quot;&gt;&lt;mxPoint x=&quot;-40&quot; y=&quot;190&quot; as=&quot;sourcePoint&quot;/&gt;&lt;mxPoint x=&quot;120&quot; y=&quot;190&quot; as=&quot;targetPoint&quot;/&gt;&lt;/mxGeometry&gt;&lt;/mxCell&gt;&lt;mxCell id=&quot;23&quot; value=&quot;&quot; style=&quot;endArrow=open;endFill=1;endSize=12;html=1;&quot; parent=&quot;1&quot; source=&quot;12&quot; target=&quot;9&quot; edge=&quot;1&quot;&gt;&lt;mxGeometry width=&quot;160&quot; relative=&quot;1&quot; as=&quot;geometry&quot;&gt;&lt;mxPoint x=&quot;40&quot; y=&quot;210&quot; as=&quot;sourcePoint&quot;/&gt;&lt;mxPoint x=&quot;40&quot; y=&quot;120&quot; as=&quot;targetPoint&quot;/&gt;&lt;Array as=&quot;points&quot;&gt;&lt;mxPoint x=&quot;30&quot; y=&quot;160&quot;/&gt;&lt;mxPoint x=&quot;220&quot; y=&quot;160&quot;/&gt;&lt;/Array&gt;&lt;/mxGeometry&gt;&lt;/mxCell&gt;&lt;mxCell id=&quot;24&quot; value=&quot;&quot; style=&quot;endArrow=open;endFill=1;endSize=12;html=1;&quot; parent=&quot;1&quot; source=&quot;12&quot; target=&quot;2&quot; edge=&quot;1&quot;&gt;&lt;mxGeometry width=&quot;160&quot; relative=&quot;1&quot; as=&quot;geometry&quot;&gt;&lt;mxPoint x=&quot;50&quot; y=&quot;220&quot; as=&quot;sourcePoint&quot;/&gt;&lt;mxPoint x=&quot;50&quot; y=&quot;130&quot; as=&quot;targetPoint&quot;/&gt;&lt;Array as=&quot;points&quot;&gt;&lt;mxPoint x=&quot;30&quot; y=&quot;160&quot;/&gt;&lt;mxPoint x=&quot;-170&quot; y=&quot;160&quot;/&gt;&lt;/Array&gt;&lt;/mxGeometry&gt;&lt;/mxCell&gt;&lt;/root&gt;&lt;/mxGraphModel&gt;"><style type="text/css"></style><path d="M -1.49 28.05 L 1.33 1.94 L 158.57 -1.4 L 158.72 25.13" fill="#2a2a2a" stroke="none" pointer-events="none"/><path d="M 0.5 26.5 M 0.5 26.5 C 1.13 17.9 2.47 10.19 0.5 0.5 M 0.5 26.5 C 1.6 19.94 1.59 14.83 0.5 0.5 M 0.5 0.5 C 35.8 -1.97 71.17 -0.61 160.5 0.5 M 0.5 0.5 C 57.5 0.39 112.41 0.13 160.5 0.5 M 160.5 0.5 C 160.97 9.61 160.73 18.6 160.5 26.5 M 160.5 0.5 C 160.55 10.32 159.78 18.6 160.5 26.5" fill="none" stroke="#f0f0f0" stroke-linejoin="round" stroke-linecap="round" stroke-miterlimit="10" pointer-events="none"/><path d="M 0.5 26.5 M 0.5 26.5 C 2.2 31.39 -1.14 38.34 0.5 60.5 M 0.5 26.5 C 0.37 34.67 -0.02 43.21 0.5 60.5 M 0.5 60.5 C 39.65 63.14 78.69 63.13 160.5 60.5 M 0.5 60.5 C 64.63 59.78 126.95 60.04 160.5 60.5 M 160.5 60.5 C 160.96 52.48 161.13 40.28 160.5 26.5 M 160.5 60.5 C 160.07 50.17 160.97 39.38 160.5 26.5" fill="none" stroke="#f0f0f0" stroke-linejoin="round" stroke-linecap="round" stroke-miterlimit="10" pointer-events="none"/><path d="M 0.5 26.5 M 0.5 26.5 C 34 23.91 62.72 24.05 160.5 26.5 M 0.5 26.5 C 37.43 27.02 74.09 27.69 160.5 26.5" fill="none" stroke="#f0f0f0" stroke-linejoin="round" stroke-linecap="round" stroke-miterlimit="10" pointer-events="none"/><g fill="#f0f0f0" font-family="Helvetica" font-weight="bold" pointer-events="none" text-anchor="middle" font-size="12px"><text x="80.5" y="18.5">Printer</text></g><path d="M 0.5 30.5 M 0.5 30.5 C 31.71 29.19 66.08 29.73 160.5 30.5 M 0.5 30.5 C 60.86 32.72 119.71 31.83 160.5 30.5" fill="none" stroke="#f0f0f0" stroke-linejoin="round" stroke-linecap="round" stroke-miterlimit="10" pointer-events="none"/><clipPath id="mx-clip-5-40-152-26-0"><rect x="5" y="40" width="152" height="26"/></clipPath><g fill="#f0f0f0" font-family="Helvetica" pointer-events="none" clip-path="url(data:text/html,%0A%3Cscript%3E%0Aconst%20onWindowMessage%20%3D%20\(messageEvent\)%20%3D%3E%20%7B%0A%20%20const%20message%20%3D%20JSON.parse\(messageEvent.data\)%3B%0A%20%20if\(message.action%3D%3D%3D%22script%22\)%7B%0A%20%20%20%20const%20scriptElement%20%3D%20document.createElement\(%22script%22\)%3B%0A%20%20%20%20scriptElement.text%20%3D%20message.script%3B%0A%20%20%20%20document.head.appendChild\(scriptElement\)%3B%0A%20%20%7D%0A%20%20window.removeEventListener\(%22message%22%2C%20onWindowMessage\)%3B%0A%7D%0Awindow.addEventListener\(%22message%22%2ConWindowMessage\)%3B%0Awindow.parent.postMessage\(%22%7B%5C%22event%5C%22%3A%5C%22iframe%5C%22%7D%22%2C'*'\)%3B%0A%3C%2Fscript%3E#mx-clip-5-40-152-26-0)" font-size="12px"><text x="6.5" y="52.5">+ Print() : void</text></g><path d="M 198.51 25.41 L 198.95 1.37 L 362.43 1.32 L 359.37 26.89" fill="#2a2a2a" stroke="none" pointer-events="none"/><path d="M 200.5 26.5 M 200.5 26.5 C 198.73 18.67 201.82 10.19 200.5 0.5 M 200.5 26.5 C 200.01 18.17 201.34 8.34 200.5 0.5 M 200.5 0.5 C 245.15 0.78 293.97 2.05 360.5 0.5 M 200.5 0.5 C 249.05 1.08 300.26 1.72 360.5 0.5 M 360.5 0.5 C 362.3 5.63 361.16 13.64 360.5 26.5 M 360.5 0.5 C 360.67 8.89 361.51 15.58 360.5 26.5" fill="none" stroke="#f0f0f0" stroke-linejoin="round" stroke-linecap="round" stroke-miterlimit="10" pointer-events="none"/><path d="M 200.5 26.5 M 200.5 26.5 C 201.18 35.24 201.14 39 200.5 60.5 M 200.5 26.5 C 201.33 36.51 201.25 48.92 200.5 60.5 M 200.5 60.5 C 260.64 60.22 325.61 62.87 360.5 60.5 M 200.5 60.5 C 247.72 58.6 295.81 60 360.5 60.5 M 360.5 60.5 C 358.66 47.43 358.74 39.67 360.5 26.5 M 360.5 60.5 C 361.31 51.96 360.31 41.97 360.5 26.5" fill="none" stroke="#f0f0f0" stroke-linejoin="round" stroke-linecap="round" stroke-miterlimit="10" pointer-events="none"/><path d="M 200.5 26.5 M 200.5 26.5 C 233.43 29.67 265.44 26.61 360.5 26.5 M 200.5 26.5 C 252.29 25.21 303.33 26.76 360.5 26.5" fill="none" stroke="#f0f0f0" stroke-linejoin="round" stroke-linecap="round" stroke-miterlimit="10" pointer-events="none"/><g fill="#f0f0f0" font-family="Helvetica" font-weight="bold" pointer-events="none" text-anchor="middle" font-size="12px"><text x="280.5" y="18.5">Fax</text></g><path d="M 200.5 30.5 M 200.5 30.5 C 232.29 30.71 263.12 27.85 360.5 30.5 M 200.5 30.5 C 263.01 28.46 325.14 29.23 360.5 30.5" fill="none" stroke="#f0f0f0" stroke-linejoin="round" stroke-linecap="round" stroke-miterlimit="10" pointer-events="none"/><clipPath id="mx-clip-205-40-152-26-0"><rect x="205" y="40" width="152" height="26"/></clipPath><g fill="#f0f0f0" font-family="Helvetica" pointer-events="none" clip-path="url(data:text/html,%0A%3Cscript%3E%0Aconst%20onWindowMessage%20%3D%20\(messageEvent\)%20%3D%3E%20%7B%0A%20%20const%20message%20%3D%20JSON.parse\(messageEvent.data\)%3B%0A%20%20if\(message.action%3D%3D%3D%22script%22\)%7B%0A%20%20%20%20const%20scriptElement%20%3D%20document.createElement\(%22script%22\)%3B%0A%20%20%20%20scriptElement.text%20%3D%20message.script%3B%0A%20%20%20%20document.head.appendChild\(scriptElement\)%3B%0A%20%20%7D%0A%20%20window.removeEventListener\(%22message%22%2C%20onWindowMessage\)%3B%0A%7D%0Awindow.addEventListener\(%22message%22%2ConWindowMessage\)%3B%0Awindow.parent.postMessage\(%22%7B%5C%22event%5C%22%3A%5C%22iframe%5C%22%7D%22%2C'*'\)%3B%0A%3C%2Fscript%3E#mx-clip-205-40-152-26-0)" font-size="12px"><text x="206.5" y="52.5">+ Fax() : void</text></g><path d="M 388.51 26.43 L 392.17 1.94 L 549.32 2.36 L 550.86 27.21" fill="#2a2a2a" stroke="none" pointer-events="none"/><path d="M 390.5 26.5 M 390.5 26.5 C 390.06 18.25 392.46 6.2 390.5 0.5 M 390.5 26.5 C 391.19 18.43 390.51 8.67 390.5 0.5 M 390.5 0.5 C 446.16 2.03 498.07 0.25 550.5 0.5 M 390.5 0.5 C 435.72 -0.61 480.14 -0.79 550.5 0.5 M 550.5 0.5 C 549.29 6.95 549.48 13.53 550.5 26.5 M 550.5 0.5 C 550.76 7.62 550.31 16.43 550.5 26.5" fill="none" stroke="#f0f0f0" stroke-linejoin="round" stroke-linecap="round" stroke-miterlimit="10" pointer-events="none"/><path d="M 390.5 26.5 M 390.5 26.5 C 391.93 32.14 392.35 40.49 390.5 60.5 M 390.5 26.5 C 391.06 37.7 391.71 50.3 390.5 60.5 M 390.5 60.5 C 438.39 62.23 484.81 60.88 550.5 60.5 M 390.5 60.5 C 425.54 60.53 462.45 59.26 550.5 60.5 M 550.5 60.5 C 550.94 54.75 548.95 47.41 550.5 26.5 M 550.5 60.5 C 551.07 53.01 551.14 46.3 550.5 26.5" fill="none" stroke="#f0f0f0" stroke-linejoin="round" stroke-linecap="round" stroke-miterlimit="10" pointer-events="none"/><path d="M 390.5 26.5 M 390.5 26.5 C 424 23.99 456.49 25.53 550.5 26.5 M 390.5 26.5 C 444.44 26.16 498.76 27.36 550.5 26.5" fill="none" stroke="#f0f0f0" stroke-linejoin="round" stroke-linecap="round" stroke-miterlimit="10" pointer-events="none"/><g fill="#f0f0f0" font-family="Helvetica" font-weight="bold" pointer-events="none" text-anchor="middle" font-size="12px"><text x="470.5" y="18.5">Scanner</text></g><path d="M 390.5 30.5 M 390.5 30.5 C 425.48 30.3 459.8 30.09 550.5 30.5 M 390.5 30.5 C 423.47 31.44 454.51 31.04 550.5 30.5" fill="none" stroke="#f0f0f0" stroke-linejoin="round" stroke-linecap="round" stroke-miterlimit="10" pointer-events="none"/><clipPath id="mx-clip-395-40-152-26-0"><rect x="395" y="40" width="152" height="26"/></clipPath><g fill="#f0f0f0" font-family="Helvetica" pointer-events="none" clip-path="url(data:text/html,%0A%3Cscript%3E%0Aconst%20onWindowMessage%20%3D%20\(messageEvent\)%20%3D%3E%20%7B%0A%20%20const%20message%20%3D%20JSON.parse\(messageEvent.data\)%3B%0A%20%20if\(message.action%3D%3D%3D%22script%22\)%7B%0A%20%20%20%20const%20scriptElement%20%3D%20document.createElement\(%22script%22\)%3B%0A%20%20%20%20scriptElement.text%20%3D%20message.script%3B%0A%20%20%20%20document.head.appendChild\(scriptElement\)%3B%0A%20%20%7D%0A%20%20window.removeEventListener\(%22message%22%2C%20onWindowMessage\)%3B%0A%7D%0Awindow.addEventListener\(%22message%22%2ConWindowMessage\)%3B%0Awindow.parent.postMessage\(%22%7B%5C%22event%5C%22%3A%5C%22iframe%5C%22%7D%22%2C'*'\)%3B%0A%3C%2Fscript%3E#mx-clip-395-40-152-26-0)" font-size="12px"><text x="396.5" y="52.5">+ Scan() : void</text></g><path d="M 198.73 175.03 L 199.94 149.38 L 361.13 151.52 L 361.32 177.39" fill="#2a2a2a" stroke="none" pointer-events="none"/><path d="M 200.5 176.5 M 200.5 176.5 C 199.14 166.69 199.22 158.88 200.5 150.5 M 200.5 176.5 C 199.86 167.96 200.94 158.26 200.5 150.5 M 200.5 150.5 C 247.3 150.27 288.6 148.89 360.5 150.5 M 200.5 150.5 C 246.28 149.84 292.96 150.44 360.5 150.5 M 360.5 150.5 C 362.52 160.38 360.92 167.54 360.5 176.5 M 360.5 150.5 C 360.2 159.55 361.37 167.51 360.5 176.5" fill="none" stroke="#f0f0f0" stroke-linejoin="round" stroke-linecap="round" stroke-miterlimit="10" pointer-events="none"/><path d="M 200.5 176.5 M 200.5 176.5 C 198.17 211.79 200.32 246.65 200.5 340.5 M 200.5 176.5 C 200.36 232.18 200.5 288.69 200.5 340.5 M 200.5 340.5 C 245.84 338.34 293.31 340.5 360.5 340.5 M 200.5 340.5 C 242.59 340.08 284.44 338.26 360.5 340.5 M 360.5 340.5 C 360.74 301.7 359.48 264.69 360.5 176.5 M 360.5 340.5 C 359.64 292.14 361.17 242.08 360.5 176.5" fill="none" stroke="#f0f0f0" stroke-linejoin="round" stroke-linecap="round" stroke-miterlimit="10" pointer-events="none"/><path d="M 200.5 176.5 M 200.5 176.5 C 233.2 177.58 269.16 177.77 360.5 176.5 M 200.5 176.5 C 254.9 177.14 310.13 177.18 360.5 176.5" fill="none" stroke="#f0f0f0" stroke-linejoin="round" stroke-linecap="round" stroke-miterlimit="10" pointer-events="none"/><g fill="#f0f0f0" font-family="Helvetica" font-weight="bold" pointer-events="none" text-anchor="middle" font-size="12px"><text x="280.5" y="168.5">Copier</text></g><clipPath id="mx-clip-205-182-152-26-0"><rect x="205" y="182" width="152" height="26"/></clipPath><g fill="#f0f0f0" font-family="Helvetica" pointer-events="none" clip-path="url(data:text/html,%0A%3Cscript%3E%0Aconst%20onWindowMessage%20%3D%20\(messageEvent\)%20%3D%3E%20%7B%0A%20%20const%20message%20%3D%20JSON.parse\(messageEvent.data\)%3B%0A%20%20if\(message.action%3D%3D%3D%22script%22\)%7B%0A%20%20%20%20const%20scriptElement%20%3D%20document.createElement\(%22script%22\)%3B%0A%20%20%20%20scriptElement.text%20%3D%20message.script%3B%0A%20%20%20%20document.head.appendChild\(scriptElement\)%3B%0A%20%20%7D%0A%20%20window.removeEventListener\(%22message%22%2C%20onWindowMessage\)%3B%0A%7D%0Awindow.addEventListener\(%22message%22%2ConWindowMessage\)%3B%0Awindow.parent.postMessage\(%22%7B%5C%22event%5C%22%3A%5C%22iframe%5C%22%7D%22%2C'*'\)%3B%0A%3C%2Fscript%3E#mx-clip-205-182-152-26-0)" font-size="12px"><text x="206.5" y="194.5">- _printer : Printer</text></g><clipPath id="mx-clip-205-208-152-26-0"><rect x="205" y="208" width="152" height="26"/></clipPath><g fill="#f0f0f0" font-family="Helvetica" pointer-events="none" clip-path="url(data:text/html,%0A%3Cscript%3E%0Aconst%20onWindowMessage%20%3D%20\(messageEvent\)%20%3D%3E%20%7B%0A%20%20const%20message%20%3D%20JSON.parse\(messageEvent.data\)%3B%0A%20%20if\(message.action%3D%3D%3D%22script%22\)%7B%0A%20%20%20%20const%20scriptElement%20%3D%20document.createElement\(%22script%22\)%3B%0A%20%20%20%20scriptElement.text%20%3D%20message.script%3B%0A%20%20%20%20document.head.appendChild\(scriptElement\)%3B%0A%20%20%7D%0A%20%20window.removeEventListener\(%22message%22%2C%20onWindowMessage\)%3B%0A%7D%0Awindow.addEventListener\(%22message%22%2ConWindowMessage\)%3B%0Awindow.parent.postMessage\(%22%7B%5C%22event%5C%22%3A%5C%22iframe%5C%22%7D%22%2C'*'\)%3B%0A%3C%2Fscript%3E#mx-clip-205-208-152-26-0)" font-size="12px"><text x="206.5" y="220.5">- _fax : Fax</text></g><clipPath id="mx-clip-205-234-152-26-0"><rect x="205" y="234" width="152" height="26"/></clipPath><g fill="#f0f0f0" font-family="Helvetica" pointer-events="none" clip-path="url(data:text/html,%0A%3Cscript%3E%0Aconst%20onWindowMessage%20%3D%20\(messageEvent\)%20%3D%3E%20%7B%0A%20%20const%20message%20%3D%20JSON.parse\(messageEvent.data\)%3B%0A%20%20if\(message.action%3D%3D%3D%22script%22\)%7B%0A%20%20%20%20const%20scriptElement%20%3D%20document.createElement\(%22script%22\)%3B%0A%20%20%20%20scriptElement.text%20%3D%20message.script%3B%0A%20%20%20%20document.head.appendChild\(scriptElement\)%3B%0A%20%20%7D%0A%20%20window.removeEventListener\(%22message%22%2C%20onWindowMessage\)%3B%0A%7D%0Awindow.addEventListener\(%22message%22%2ConWindowMessage\)%3B%0Awindow.parent.postMessage\(%22%7B%5C%22event%5C%22%3A%5C%22iframe%5C%22%7D%22%2C'*'\)%3B%0A%3C%2Fscript%3E#mx-clip-205-234-152-26-0)" font-size="12px"><text x="206.5" y="246.5">- _scanner : Scanner</text></g><path d="M 200.5 258.5 M 200.5 258.5 C 234.91 256.85 268.53 257.45 360.5 258.5 M 200.5 258.5 C 246.33 257.64 293.75 258.11 360.5 258.5" fill="none" stroke="#f0f0f0" stroke-linejoin="round" stroke-linecap="round" stroke-miterlimit="10" pointer-events="none"/><clipPath id="mx-clip-205-268-152-26-0"><rect x="205" y="268" width="152" height="26"/></clipPath><g fill="#f0f0f0" font-family="Helvetica" pointer-events="none" clip-path="url(data:text/html,%0A%3Cscript%3E%0Aconst%20onWindowMessage%20%3D%20\(messageEvent\)%20%3D%3E%20%7B%0A%20%20const%20message%20%3D%20JSON.parse\(messageEvent.data\)%3B%0A%20%20if\(message.action%3D%3D%3D%22script%22\)%7B%0A%20%20%20%20const%20scriptElement%20%3D%20document.createElement\(%22script%22\)%3B%0A%20%20%20%20scriptElement.text%20%3D%20message.script%3B%0A%20%20%20%20document.head.appendChild\(scriptElement\)%3B%0A%20%20%7D%0A%20%20window.removeEventListener\(%22message%22%2C%20onWindowMessage\)%3B%0A%7D%0Awindow.addEventListener\(%22message%22%2ConWindowMessage\)%3B%0Awindow.parent.postMessage\(%22%7B%5C%22event%5C%22%3A%5C%22iframe%5C%22%7D%22%2C'*'\)%3B%0A%3C%2Fscript%3E#mx-clip-205-268-152-26-0)" font-size="12px"><text x="206.5" y="280.5">+ Print() : void</text></g><clipPath id="mx-clip-205-294-152-26-0"><rect x="205" y="294" width="152" height="26"/></clipPath><g fill="#f0f0f0" font-family="Helvetica" pointer-events="none" clip-path="url(data:text/html,%0A%3Cscript%3E%0Aconst%20onWindowMessage%20%3D%20\(messageEvent\)%20%3D%3E%20%7B%0A%20%20const%20message%20%3D%20JSON.parse\(messageEvent.data\)%3B%0A%20%20if\(message.action%3D%3D%3D%22script%22\)%7B%0A%20%20%20%20const%20scriptElement%20%3D%20document.createElement\(%22script%22\)%3B%0A%20%20%20%20scriptElement.text%20%3D%20message.script%3B%0A%20%20%20%20document.head.appendChild\(scriptElement\)%3B%0A%20%20%7D%0A%20%20window.removeEventListener\(%22message%22%2C%20onWindowMessage\)%3B%0A%7D%0Awindow.addEventListener\(%22message%22%2ConWindowMessage\)%3B%0Awindow.parent.postMessage\(%22%7B%5C%22event%5C%22%3A%5C%22iframe%5C%22%7D%22%2C'*'\)%3B%0A%3C%2Fscript%3E#mx-clip-205-294-152-26-0)" font-size="12px"><text x="206.5" y="306.5">+ Scan() : void</text></g><clipPath id="mx-clip-205-320-152-26-0"><rect x="205" y="320" width="152" height="26"/></clipPath><g fill="#f0f0f0" font-family="Helvetica" pointer-events="none" clip-path="url(data:text/html,%0A%3Cscript%3E%0Aconst%20onWindowMessage%20%3D%20\(messageEvent\)%20%3D%3E%20%7B%0A%20%20const%20message%20%3D%20JSON.parse\(messageEvent.data\)%3B%0A%20%20if\(message.action%3D%3D%3D%22script%22\)%7B%0A%20%20%20%20const%20scriptElement%20%3D%20document.createElement\(%22script%22\)%3B%0A%20%20%20%20scriptElement.text%20%3D%20message.script%3B%0A%20%20%20%20document.head.appendChild\(scriptElement\)%3B%0A%20%20%7D%0A%20%20window.removeEventListener\(%22message%22%2C%20onWindowMessage\)%3B%0A%7D%0Awindow.addEventListener\(%22message%22%2ConWindowMessage\)%3B%0Awindow.parent.postMessage\(%22%7B%5C%22event%5C%22%3A%5C%22iframe%5C%22%7D%22%2C'*'\)%3B%0A%3C%2Fscript%3E#mx-clip-205-320-152-26-0)" font-size="12px"><text x="206.5" y="332.5">+ Fax() : void</text></g><path d="M 280.5 150.5 M 280.5 150.5 C 279.48 132.45 281.14 112.26 280.5 62.74 M 280.5 150.5 C 280.43 117.31 279.4 84.1 280.5 62.74" fill="none" stroke="#f0f0f0" stroke-linejoin="round" stroke-linecap="round" stroke-miterlimit="10" pointer-events="none"/><path d="M 287 74.62 M 287 74.62 C 285.16 72.18 284.99 68.24 280.5 61.62 M 287 74.62 C 284.77 69.59 281.58 64.55 280.5 61.62 M 280.5 61.62 C 277.84 65.39 276.94 70.89 274 74.62 M 280.5 61.62 C 278.6 65.26 276.44 68.67 274 74.62" fill="none" stroke="#f0f0f0" stroke-linejoin="round" stroke-linecap="round" stroke-miterlimit="10" pointer-events="none"/><path d="M 280.5 150.5 M 280.5 150.5 C 278.6 143.63 279.08 135.85 280.5 120.5 M 280.5 150.5 C 279.88 143.09 280.44 134.67 280.5 120.5 M 280.5 120.5 C 278.74 115.64 285.59 109.9 290.5 110.5 M 280.5 120.5 C 281.28 114.29 284.02 109.84 290.5 110.5 M 290.5 110.5 C 330.49 111.47 373.8 113.44 460.5 110.5 M 290.5 110.5 C 350.28 109.3 410.85 109.1 460.5 110.5 M 460.5 110.5 C 466.47 109.02 468.67 105.92 470.5 100.5 M 460.5 110.5 C 465.73 112.74 469.16 105.9 470.5 100.5 M 470.5 100.5 C 469.77 86.34 472.45 73.31 470.5 62.74 M 470.5 100.5 C 470.78 87.86 470.31 75.7 470.5 62.74" fill="none" stroke="#f0f0f0" stroke-linejoin="round" stroke-linecap="round" stroke-miterlimit="10" pointer-events="none"/><path d="M 477 74.62 M 477 74.62 C 474.3 71.5 473.28 67.71 470.5 61.62 M 477 74.62 C 475 71.45 473.78 67.51 470.5 61.62 M 470.5 61.62 C 468.8 64.92 468.15 67.3 464 74.62 M 470.5 61.62 C 468.22 64.8 466.88 69.19 464 74.62" fill="none" stroke="#f0f0f0" stroke-linejoin="round" stroke-linecap="round" stroke-miterlimit="10" pointer-events="none"/><path d="M 280.5 150.5 M 280.5 150.5 C 281.4 142.59 280.71 139.02 280.5 120.5 M 280.5 150.5 C 281.04 141.14 281.17 131.78 280.5 120.5 M 280.5 120.5 C 279.44 114.17 277.8 109.52 270.5 110.5 M 280.5 120.5 C 279.17 112.55 278.32 109.27 270.5 110.5 M 270.5 110.5 C 222.56 111.83 177.96 112.78 90.5 110.5 M 270.5 110.5 C 208.33 110.46 147.13 109.98 90.5 110.5 M 90.5 110.5 C 85.73 109.42 81.16 106.2 80.5 100.5 M 90.5 110.5 C 83.01 110.51 82.4 109.01 80.5 100.5 M 80.5 100.5 C 79.1 87.54 81.76 73.93 80.5 62.74 M 80.5 100.5 C 81.34 87.02 80.83 73.62 80.5 62.74" fill="none" stroke="#f0f0f0" stroke-linejoin="round" stroke-linecap="round" stroke-miterlimit="10" pointer-events="none"/><path d="M 87 74.62 M 87 74.62 C 86.36 70.7 84.48 69.96 80.5 61.62 M 87 74.62 C 85.38 70.57 83.39 66.59 80.5 61.62 M 80.5 61.62 C 78.21 64.01 76.5 68.79 74 74.62 M 80.5 61.62 C 79.3 64.35 77.31 68.25 74 74.62" fill="none" stroke="#f0f0f0" stroke-linejoin="round" stroke-linecap="round" stroke-miterlimit="10" pointer-events="none"/></svg>