<svg xmlns="http://www.w3.org/2000/svg" version="1.1" height="249.5px" width="491px" viewBox="-10 -10 511 269.5" content="&lt;mxGraphModel dx=&quot;607&quot; dy=&quot;485&quot; grid=&quot;1&quot; gridSize=&quot;10&quot; guides=&quot;1&quot; tooltips=&quot;1&quot; connect=&quot;1&quot; arrows=&quot;1&quot; fold=&quot;1&quot; page=&quot;0&quot; pageScale=&quot;1&quot; pageWidth=&quot;850&quot; pageHeight=&quot;1100&quot; math=&quot;0&quot; shadow=&quot;0&quot;&gt;&lt;root&gt;&lt;mxCell id=&quot;0&quot;/&gt;&lt;mxCell id=&quot;1&quot; parent=&quot;0&quot;/&gt;&lt;mxCell id=&quot;2&quot; value=&quot;IChattingMediator&quot; style=&quot;swimlane;fontStyle=1;align=center;verticalAlign=top;childLayout=stackLayout;horizontal=1;startSize=26;horizontalStack=0;resizeParent=1;resizeParentMax=0;resizeLast=0;collapsible=1;marginBottom=0;&quot; vertex=&quot;1&quot; parent=&quot;1&quot;&gt;&lt;mxGeometry x=&quot;20&quot; y=&quot;60&quot; width=&quot;190&quot; height=&quot;86&quot; as=&quot;geometry&quot;/&gt;&lt;/mxCell&gt;&lt;mxCell id=&quot;4&quot; value=&quot;&quot; style=&quot;line;strokeWidth=1;fillColor=none;align=left;verticalAlign=middle;spacingTop=-1;spacingLeft=3;spacingRight=3;rotatable=0;labelPosition=right;points=[];portConstraint=eastwest;&quot; vertex=&quot;1&quot; parent=&quot;2&quot;&gt;&lt;mxGeometry y=&quot;26&quot; width=&quot;190&quot; height=&quot;8&quot; as=&quot;geometry&quot;/&gt;&lt;/mxCell&gt;&lt;mxCell id=&quot;5&quot; value=&quot;+ Join(Chatter) : void&quot; style=&quot;text;strokeColor=none;fillColor=none;align=left;verticalAlign=top;spacingLeft=4;spacingRight=4;overflow=hidden;rotatable=0;points=[[0,0.5],[1,0.5]];portConstraint=eastwest;&quot; vertex=&quot;1&quot; parent=&quot;2&quot;&gt;&lt;mxGeometry y=&quot;34&quot; width=&quot;190&quot; height=&quot;26&quot; as=&quot;geometry&quot;/&gt;&lt;/mxCell&gt;&lt;mxCell id=&quot;13&quot; value=&quot;+ SendMessage(string) : void&quot; style=&quot;text;strokeColor=none;fillColor=none;align=left;verticalAlign=top;spacingLeft=4;spacingRight=4;overflow=hidden;rotatable=0;points=[[0,0.5],[1,0.5]];portConstraint=eastwest;&quot; vertex=&quot;1&quot; parent=&quot;2&quot;&gt;&lt;mxGeometry y=&quot;60&quot; width=&quot;190&quot; height=&quot;26&quot; as=&quot;geometry&quot;/&gt;&lt;/mxCell&gt;&lt;mxCell id=&quot;6&quot; value=&quot;GroupChat&quot; style=&quot;swimlane;fontStyle=1;align=center;verticalAlign=top;childLayout=stackLayout;horizontal=1;startSize=26;horizontalStack=0;resizeParent=1;resizeParentMax=0;resizeLast=0;collapsible=1;marginBottom=0;&quot; vertex=&quot;1&quot; parent=&quot;1&quot;&gt;&lt;mxGeometry x=&quot;20&quot; y=&quot;220&quot; width=&quot;190&quot; height=&quot;86&quot; as=&quot;geometry&quot;/&gt;&lt;/mxCell&gt;&lt;mxCell id=&quot;16&quot; value=&quot;- chatters : Chatter [ ]&quot; style=&quot;text;strokeColor=none;fillColor=none;align=left;verticalAlign=top;spacingLeft=4;spacingRight=4;overflow=hidden;rotatable=0;points=[[0,0.5],[1,0.5]];portConstraint=eastwest;&quot; vertex=&quot;1&quot; parent=&quot;6&quot;&gt;&lt;mxGeometry y=&quot;26&quot; width=&quot;190&quot; height=&quot;26&quot; as=&quot;geometry&quot;/&gt;&lt;/mxCell&gt;&lt;mxCell id=&quot;7&quot; value=&quot;&quot; style=&quot;line;strokeWidth=1;fillColor=none;align=left;verticalAlign=middle;spacingTop=-1;spacingLeft=3;spacingRight=3;rotatable=0;labelPosition=right;points=[];portConstraint=eastwest;&quot; vertex=&quot;1&quot; parent=&quot;6&quot;&gt;&lt;mxGeometry y=&quot;52&quot; width=&quot;190&quot; height=&quot;8&quot; as=&quot;geometry&quot;/&gt;&lt;/mxCell&gt;&lt;mxCell id=&quot;8&quot; value=&quot;+ SendMessage(string) : void&quot; style=&quot;text;strokeColor=none;fillColor=none;align=left;verticalAlign=top;spacingLeft=4;spacingRight=4;overflow=hidden;rotatable=0;points=[[0,0.5],[1,0.5]];portConstraint=eastwest;&quot; vertex=&quot;1&quot; parent=&quot;6&quot;&gt;&lt;mxGeometry y=&quot;60&quot; width=&quot;190&quot; height=&quot;26&quot; as=&quot;geometry&quot;/&gt;&lt;/mxCell&gt;&lt;mxCell id=&quot;9&quot; value=&quot;Chatter&quot; style=&quot;swimlane;fontStyle=1;align=center;verticalAlign=top;childLayout=stackLayout;horizontal=1;startSize=26;horizontalStack=0;resizeParent=1;resizeParentMax=0;resizeLast=0;collapsible=1;marginBottom=0;&quot; vertex=&quot;1&quot; parent=&quot;1&quot;&gt;&lt;mxGeometry x=&quot;300&quot; y=&quot;134&quot; width=&quot;210&quot; height=&quot;86&quot; as=&quot;geometry&quot;/&gt;&lt;/mxCell&gt;&lt;mxCell id=&quot;10&quot; value=&quot;- mediator : IChattingMediator&quot; style=&quot;text;strokeColor=none;fillColor=none;align=left;verticalAlign=top;spacingLeft=4;spacingRight=4;overflow=hidden;rotatable=0;points=[[0,0.5],[1,0.5]];portConstraint=eastwest;&quot; vertex=&quot;1&quot; parent=&quot;9&quot;&gt;&lt;mxGeometry y=&quot;26&quot; width=&quot;210&quot; height=&quot;26&quot; as=&quot;geometry&quot;/&gt;&lt;/mxCell&gt;&lt;mxCell id=&quot;11&quot; value=&quot;&quot; style=&quot;line;strokeWidth=1;fillColor=none;align=left;verticalAlign=middle;spacingTop=-1;spacingLeft=3;spacingRight=3;rotatable=0;labelPosition=right;points=[];portConstraint=eastwest;&quot; vertex=&quot;1&quot; parent=&quot;9&quot;&gt;&lt;mxGeometry y=&quot;52&quot; width=&quot;210&quot; height=&quot;8&quot; as=&quot;geometry&quot;/&gt;&lt;/mxCell&gt;&lt;mxCell id=&quot;12&quot; value=&quot;+ Receive(string) : void&quot; style=&quot;text;strokeColor=none;fillColor=none;align=left;verticalAlign=top;spacingLeft=4;spacingRight=4;overflow=hidden;rotatable=0;points=[[0,0.5],[1,0.5]];portConstraint=eastwest;&quot; vertex=&quot;1&quot; parent=&quot;9&quot;&gt;&lt;mxGeometry y=&quot;60&quot; width=&quot;210&quot; height=&quot;26&quot; as=&quot;geometry&quot;/&gt;&lt;/mxCell&gt;&lt;mxCell id=&quot;14&quot; value=&quot;&quot; style=&quot;endArrow=block;dashed=1;endFill=0;endSize=12;html=1;&quot; edge=&quot;1&quot; parent=&quot;1&quot; source=&quot;6&quot; target=&quot;2&quot;&gt;&lt;mxGeometry width=&quot;160&quot; relative=&quot;1&quot; as=&quot;geometry&quot;&gt;&lt;mxPoint x=&quot;180&quot; y=&quot;280&quot; as=&quot;sourcePoint&quot;/&gt;&lt;mxPoint x=&quot;340&quot; y=&quot;280&quot; as=&quot;targetPoint&quot;/&gt;&lt;/mxGeometry&gt;&lt;/mxCell&gt;&lt;mxCell id=&quot;15&quot; value=&quot;&quot; style=&quot;endArrow=open;endFill=1;endSize=12;html=1;startArrow=open;startFill=0;startSize=12;&quot; edge=&quot;1&quot; parent=&quot;1&quot; source=&quot;2&quot; target=&quot;9&quot;&gt;&lt;mxGeometry width=&quot;160&quot; relative=&quot;1&quot; as=&quot;geometry&quot;&gt;&lt;mxPoint x=&quot;180&quot; y=&quot;280&quot; as=&quot;sourcePoint&quot;/&gt;&lt;mxPoint x=&quot;400&quot; y=&quot;140&quot; as=&quot;targetPoint&quot;/&gt;&lt;Array as=&quot;points&quot;&gt;&lt;mxPoint x=&quot;410&quot; y=&quot;103&quot;/&gt;&lt;/Array&gt;&lt;/mxGeometry&gt;&lt;/mxCell&gt;&lt;mxCell id=&quot;17&quot; value=&quot;&quot; style=&quot;endArrow=open;html=1;endSize=12;startArrow=diamondThin;startSize=14;startFill=0;edgeStyle=orthogonalEdgeStyle;align=left;verticalAlign=bottom;&quot; edge=&quot;1&quot; parent=&quot;1&quot; source=&quot;6&quot; target=&quot;9&quot;&gt;&lt;mxGeometry x=&quot;-1&quot; y=&quot;3&quot; relative=&quot;1&quot; as=&quot;geometry&quot;&gt;&lt;mxPoint x=&quot;160&quot; y=&quot;230&quot; as=&quot;sourcePoint&quot;/&gt;&lt;mxPoint x=&quot;320&quot; y=&quot;230&quot; as=&quot;targetPoint&quot;/&gt;&lt;Array as=&quot;points&quot;&gt;&lt;mxPoint x=&quot;405&quot; y=&quot;263&quot;/&gt;&lt;/Array&gt;&lt;/mxGeometry&gt;&lt;/mxCell&gt;&lt;/root&gt;&lt;/mxGraphModel&gt;"><style type="text/css"></style><path d="M -1.49 28.05 L 1.33 1.94 L 188.57 -1.4 L 188.72 25.13" fill="#2a2a2a" stroke="none" pointer-events="none"/><path d="M 0.5 26.5 M 0.5 26.5 C 1.13 17.9 2.47 10.19 0.5 0.5 M 0.5 26.5 C 1.6 19.94 1.59 14.83 0.5 0.5 M 0.5 0.5 C 42.33 -2.11 84.23 -0.75 190.5 0.5 M 0.5 0.5 C 68.04 0.3 133.49 0.03 190.5 0.5 M 190.5 0.5 C 190.97 9.61 190.73 18.6 190.5 26.5 M 190.5 0.5 C 190.55 10.32 189.78 18.6 190.5 26.5" fill="none" stroke="#f0f0f0" stroke-linejoin="round" stroke-linecap="round" stroke-miterlimit="10" pointer-events="none"/><path d="M 0.5 26.5 M 0.5 26.5 C 2.4 36.6 -0.93 48.76 0.5 86.5 M 0.5 26.5 C 0.35 40.68 -0.03 55.25 0.5 86.5 M 0.5 86.5 C 47.02 89.26 93.44 89.25 190.5 86.5 M 0.5 86.5 C 76.56 85.6 150.82 85.86 190.5 86.5 M 190.5 86.5 C 190.83 71.13 190.99 51.59 190.5 26.5 M 190.5 86.5 C 190.04 68.01 190.94 49.07 190.5 26.5" fill="none" stroke="#f0f0f0" stroke-linejoin="round" stroke-linecap="round" stroke-miterlimit="10" pointer-events="none"/><path d="M 0.5 26.5 M 0.5 26.5 C 40.01 23.79 74.74 23.93 190.5 26.5 M 0.5 26.5 C 44.37 27.06 87.98 27.74 190.5 26.5" fill="none" stroke="#f0f0f0" stroke-linejoin="round" stroke-linecap="round" stroke-miterlimit="10" pointer-events="none"/><g fill="#f0f0f0" font-family="Helvetica" font-weight="bold" pointer-events="none" text-anchor="middle" font-size="12px"><text x="95.5" y="18.5">IChattingMediator</text></g><path d="M 0.5 30.5 M 0.5 30.5 C 37.72 28.94 78.1 29.48 190.5 30.5 M 0.5 30.5 C 72.12 33 142.24 32.11 190.5 30.5" fill="none" stroke="#f0f0f0" stroke-linejoin="round" stroke-linecap="round" stroke-miterlimit="10" pointer-events="none"/><clipPath id="mx-clip-5-40-182-26-0"><rect x="5" y="40" width="182" height="26"/></clipPath><g fill="#f0f0f0" font-family="Helvetica" pointer-events="none" clip-path="url(data:text/html,%0A%3Cscript%3E%0Aconst%20onWindowMessage%20%3D%20\(messageEvent\)%20%3D%3E%20%7B%0A%20%20const%20message%20%3D%20JSON.parse\(messageEvent.data\)%3B%0A%20%20if\(message.action%3D%3D%3D%22script%22\)%7B%0A%20%20%20%20const%20scriptElement%20%3D%20document.createElement\(%22script%22\)%3B%0A%20%20%20%20scriptElement.text%20%3D%20message.script%3B%0A%20%20%20%20document.head.appendChild\(scriptElement\)%3B%0A%20%20%7D%0A%20%20window.removeEventListener\(%22message%22%2C%20onWindowMessage\)%3B%0A%7D%0Awindow.addEventListener\(%22message%22%2ConWindowMessage\)%3B%0Awindow.parent.postMessage\(%22%7B%5C%22event%5C%22%3A%5C%22iframe%5C%22%7D%22%2C'*'\)%3B%0A%3C%2Fscript%3E#mx-clip-5-40-182-26-0)" font-size="12px"><text x="6.5" y="52.5">+ Join(Chatter) : void</text></g><clipPath id="mx-clip-5-66-182-26-0"><rect x="5" y="66" width="182" height="26"/></clipPath><g fill="#f0f0f0" font-family="Helvetica" pointer-events="none" clip-path="url(data:text/html,%0A%3Cscript%3E%0Aconst%20onWindowMessage%20%3D%20\(messageEvent\)%20%3D%3E%20%7B%0A%20%20const%20message%20%3D%20JSON.parse\(messageEvent.data\)%3B%0A%20%20if\(message.action%3D%3D%3D%22script%22\)%7B%0A%20%20%20%20const%20scriptElement%20%3D%20document.createElement\(%22script%22\)%3B%0A%20%20%20%20scriptElement.text%20%3D%20message.script%3B%0A%20%20%20%20document.head.appendChild\(scriptElement\)%3B%0A%20%20%7D%0A%20%20window.removeEventListener\(%22message%22%2C%20onWindowMessage\)%3B%0A%7D%0Awindow.addEventListener\(%22message%22%2ConWindowMessage\)%3B%0Awindow.parent.postMessage\(%22%7B%5C%22event%5C%22%3A%5C%22iframe%5C%22%7D%22%2C'*'\)%3B%0A%3C%2Fscript%3E#mx-clip-5-66-182-26-0)" font-size="12px"><text x="6.5" y="78.5">+ SendMessage(string) : void</text></g><path d="M -1.49 185.41 L -1.05 161.37 L 192.43 161.32 L 189.37 186.89" fill="#2a2a2a" stroke="none" pointer-events="none"/><path d="M 0.5 186.5 M 0.5 186.5 C -1.27 178.67 1.82 170.19 0.5 160.5 M 0.5 186.5 C 0.01 178.17 1.34 168.34 0.5 160.5 M 0.5 160.5 C 53.78 160.96 111.23 162.23 190.5 160.5 M 0.5 160.5 C 58.33 161.35 118.82 161.99 190.5 160.5 M 190.5 160.5 C 192.3 165.63 191.16 173.64 190.5 186.5 M 190.5 160.5 C 190.67 168.89 191.51 175.58 190.5 186.5" fill="none" stroke="#f0f0f0" stroke-linejoin="round" stroke-linecap="round" stroke-miterlimit="10" pointer-events="none"/><path d="M 0.5 186.5 M 0.5 186.5 C 1.04 200.45 0.99 209.42 0.5 246.5 M 0.5 186.5 C 1.46 204.82 1.38 225.53 0.5 246.5 M 0.5 246.5 C 72.23 246.42 148.79 249.06 190.5 246.5 M 0.5 246.5 C 56.69 244.38 113.74 245.77 190.5 246.5 M 190.5 246.5 C 188.64 224.89 188.72 208.58 190.5 186.5 M 190.5 246.5 C 191.49 230.75 190.49 213.55 190.5 186.5" fill="none" stroke="#f0f0f0" stroke-linejoin="round" stroke-linecap="round" stroke-miterlimit="10" pointer-events="none"/><path d="M 0.5 186.5 M 0.5 186.5 C 39.44 189.9 77.47 186.84 190.5 186.5 M 0.5 186.5 C 61.87 185.13 122.5 186.68 190.5 186.5" fill="none" stroke="#f0f0f0" stroke-linejoin="round" stroke-linecap="round" stroke-miterlimit="10" pointer-events="none"/><g fill="#f0f0f0" font-family="Helvetica" font-weight="bold" pointer-events="none" text-anchor="middle" font-size="12px"><text x="95.5" y="178.5">GroupChat</text></g><clipPath id="mx-clip-5-192-182-26-0"><rect x="5" y="192" width="182" height="26"/></clipPath><g fill="#f0f0f0" font-family="Helvetica" pointer-events="none" clip-path="url(data:text/html,%0A%3Cscript%3E%0Aconst%20onWindowMessage%20%3D%20\(messageEvent\)%20%3D%3E%20%7B%0A%20%20const%20message%20%3D%20JSON.parse\(messageEvent.data\)%3B%0A%20%20if\(message.action%3D%3D%3D%22script%22\)%7B%0A%20%20%20%20const%20scriptElement%20%3D%20document.createElement\(%22script%22\)%3B%0A%20%20%20%20scriptElement.text%20%3D%20message.script%3B%0A%20%20%20%20document.head.appendChild\(scriptElement\)%3B%0A%20%20%7D%0A%20%20window.removeEventListener\(%22message%22%2C%20onWindowMessage\)%3B%0A%7D%0Awindow.addEventListener\(%22message%22%2ConWindowMessage\)%3B%0Awindow.parent.postMessage\(%22%7B%5C%22event%5C%22%3A%5C%22iframe%5C%22%7D%22%2C'*'\)%3B%0A%3C%2Fscript%3E#mx-clip-5-192-182-26-0)" font-size="12px"><text x="6.5" y="204.5">- chatters : Chatter [ ]</text></g><path d="M 0.5 216.5 M 0.5 216.5 C 38.3 216.58 75.15 213.72 190.5 216.5 M 0.5 216.5 C 74.75 214.2 148.63 214.96 190.5 216.5" fill="none" stroke="#f0f0f0" stroke-linejoin="round" stroke-linecap="round" stroke-miterlimit="10" pointer-events="none"/><clipPath id="mx-clip-5-226-182-26-0"><rect x="5" y="226" width="182" height="26"/></clipPath><g fill="#f0f0f0" font-family="Helvetica" pointer-events="none" clip-path="url(data:text/html,%0A%3Cscript%3E%0Aconst%20onWindowMessage%20%3D%20\(messageEvent\)%20%3D%3E%20%7B%0A%20%20const%20message%20%3D%20JSON.parse\(messageEvent.data\)%3B%0A%20%20if\(message.action%3D%3D%3D%22script%22\)%7B%0A%20%20%20%20const%20scriptElement%20%3D%20document.createElement\(%22script%22\)%3B%0A%20%20%20%20scriptElement.text%20%3D%20message.script%3B%0A%20%20%20%20document.head.appendChild\(scriptElement\)%3B%0A%20%20%7D%0A%20%20window.removeEventListener\(%22message%22%2C%20onWindowMessage\)%3B%0A%7D%0Awindow.addEventListener\(%22message%22%2ConWindowMessage\)%3B%0Awindow.parent.postMessage\(%22%7B%5C%22event%5C%22%3A%5C%22iframe%5C%22%7D%22%2C'*'\)%3B%0A%3C%2Fscript%3E#mx-clip-5-226-182-26-0)" font-size="12px"><text x="6.5" y="238.5">+ SendMessage(string) : void</text></g><path d="M 278.51 100.43 L 282.17 75.94 L 489.32 76.36 L 490.86 101.21" fill="#2a2a2a" stroke="none" pointer-events="none"/><path d="M 280.5 100.5 M 280.5 100.5 C 280.06 92.25 282.46 80.2 280.5 74.5 M 280.5 100.5 C 281.19 92.43 280.51 82.67 280.5 74.5 M 280.5 74.5 C 353.03 76.26 422.24 74.68 490.5 74.5 M 280.5 74.5 C 339.53 73.44 397.85 73.28 490.5 74.5 M 490.5 74.5 C 489.29 80.95 489.48 87.53 490.5 100.5 M 490.5 74.5 C 490.76 81.62 490.31 90.43 490.5 100.5" fill="none" stroke="#f0f0f0" stroke-linejoin="round" stroke-linecap="round" stroke-miterlimit="10" pointer-events="none"/><path d="M 280.5 100.5 M 280.5 100.5 C 281.92 111.35 282.34 124.91 280.5 160.5 M 280.5 100.5 C 281.29 120.42 281.93 141.75 280.5 160.5 M 280.5 160.5 C 342.84 162.17 403.87 160.98 490.5 160.5 M 280.5 160.5 C 326.88 160.36 374.93 159.24 490.5 160.5 M 490.5 160.5 C 491 149.21 489.01 136.33 490.5 100.5 M 490.5 160.5 C 491.28 147.81 491.35 135.9 490.5 100.5" fill="none" stroke="#f0f0f0" stroke-linejoin="round" stroke-linecap="round" stroke-miterlimit="10" pointer-events="none"/><path d="M 280.5 100.5 M 280.5 100.5 C 323.85 97.91 366.31 99.27 490.5 100.5 M 280.5 100.5 C 351.18 100.16 422.2 101.22 490.5 100.5" fill="none" stroke="#f0f0f0" stroke-linejoin="round" stroke-linecap="round" stroke-miterlimit="10" pointer-events="none"/><g fill="#f0f0f0" font-family="Helvetica" font-weight="bold" pointer-events="none" text-anchor="middle" font-size="12px"><text x="385.5" y="92.5">Chatter</text></g><clipPath id="mx-clip-285-106-202-26-0"><rect x="285" y="106" width="202" height="26"/></clipPath><g fill="#f0f0f0" font-family="Helvetica" pointer-events="none" clip-path="url(data:text/html,%0A%3Cscript%3E%0Aconst%20onWindowMessage%20%3D%20\(messageEvent\)%20%3D%3E%20%7B%0A%20%20const%20message%20%3D%20JSON.parse\(messageEvent.data\)%3B%0A%20%20if\(message.action%3D%3D%3D%22script%22\)%7B%0A%20%20%20%20const%20scriptElement%20%3D%20document.createElement\(%22script%22\)%3B%0A%20%20%20%20scriptElement.text%20%3D%20message.script%3B%0A%20%20%20%20document.head.appendChild\(scriptElement\)%3B%0A%20%20%7D%0A%20%20window.removeEventListener\(%22message%22%2C%20onWindowMessage\)%3B%0A%7D%0Awindow.addEventListener\(%22message%22%2ConWindowMessage\)%3B%0Awindow.parent.postMessage\(%22%7B%5C%22event%5C%22%3A%5C%22iframe%5C%22%7D%22%2C'*'\)%3B%0A%3C%2Fscript%3E#mx-clip-285-106-202-26-0)" font-size="12px"><text x="286.5" y="118.5">- mediator : IChattingMediator</text></g><path d="M 280.5 130.5 M 280.5 130.5 C 324.9 131.01 368.69 131.01 490.5 130.5 M 280.5 130.5 C 337.79 130.45 395.48 129.4 490.5 130.5" fill="none" stroke="#f0f0f0" stroke-linejoin="round" stroke-linecap="round" stroke-miterlimit="10" pointer-events="none"/><clipPath id="mx-clip-285-140-202-26-0"><rect x="285" y="140" width="202" height="26"/></clipPath><g fill="#f0f0f0" font-family="Helvetica" pointer-events="none" clip-path="url(data:text/html,%0A%3Cscript%3E%0Aconst%20onWindowMessage%20%3D%20\(messageEvent\)%20%3D%3E%20%7B%0A%20%20const%20message%20%3D%20JSON.parse\(messageEvent.data\)%3B%0A%20%20if\(message.action%3D%3D%3D%22script%22\)%7B%0A%20%20%20%20const%20scriptElement%20%3D%20document.createElement\(%22script%22\)%3B%0A%20%20%20%20scriptElement.text%20%3D%20message.script%3B%0A%20%20%20%20document.head.appendChild\(scriptElement\)%3B%0A%20%20%7D%0A%20%20window.removeEventListener\(%22message%22%2C%20onWindowMessage\)%3B%0A%7D%0Awindow.addEventListener\(%22message%22%2ConWindowMessage\)%3B%0Awindow.parent.postMessage\(%22%7B%5C%22event%5C%22%3A%5C%22iframe%5C%22%7D%22%2C'*'\)%3B%0A%3C%2Fscript%3E#mx-clip-285-140-202-26-0)" font-size="12px"><text x="286.5" y="152.5">+ Receive(string) : void</text></g><path d="M 95.5 160.5 M 95.5 160.5 C 96.33 146.4 96.12 134.33 95.5 100.62 M 95.5 160.5 C 94.83 142.86 96.12 126.07 95.5 100.62" fill="none" stroke="#f0f0f0" stroke-linejoin="round" stroke-linecap="round" stroke-miterlimit="10" stroke-dasharray="3 3" pointer-events="none"/><path d="M 95.5 87.62 M 95.5 87.62 C 97.25 89.31 98.48 92.49 102 100.62 M 95.5 87.62 C 97.23 91.08 100.04 95.17 102 100.62 M 102 100.62 C 96.42 100.25 93.83 99.92 89 100.62 M 102 100.62 C 99.59 100.91 96.6 100.75 89 100.62 M 89 100.62 C 90.5 96.65 94.73 91.6 95.5 87.62 M 89 100.62 C 91.26 95.11 93.44 90.85 95.5 87.62" fill="none" stroke="#f0f0f0" stroke-linejoin="round" stroke-linecap="round" stroke-miterlimit="10" pointer-events="none"/><path d="M 192.74 43.5 M 192.74 43.5 C 231.88 46.28 270.18 43.07 380.5 43.5 M 192.74 43.5 C 261.29 41.63 327.81 41.32 380.5 43.5 M 380.5 43.5 C 389.03 43.96 388.54 45.03 389.83 53.48 M 380.5 43.5 C 389.08 43.78 390.07 48.86 389.83 53.48 M 389.83 53.48 C 389.94 60.39 388.62 66.23 388.56 72.27 M 389.83 53.48 C 390.39 57.84 388.57 62.49 388.56 72.27" fill="none" stroke="#f0f0f0" stroke-linejoin="round" stroke-linecap="round" stroke-miterlimit="10" pointer-events="none"/><path d="M 204.62 37 M 204.62 37 C 201.46 39.39 197.7 38.43 191.62 43.5 M 204.62 37 C 200.63 39.35 195.12 41.47 191.62 43.5 M 191.62 43.5 C 195.44 47.38 202.03 48.59 204.62 50 M 191.62 43.5 C 196.53 46.14 201.99 48.32 204.62 50" fill="none" stroke="#f0f0f0" stroke-linejoin="round" stroke-linecap="round" stroke-miterlimit="10" pointer-events="none"/><path d="M 382.87 59.98 M 382.87 59.98 C 383.62 63.95 383.81 64.46 388.48 73.38 M 382.87 59.98 C 385.64 64.64 386.83 69.25 388.48 73.38 M 388.48 73.38 C 390.04 69.73 394.41 63.47 395.84 60.85 M 388.48 73.38 C 391.14 68.65 394.4 63.44 395.84 60.85" fill="none" stroke="#f0f0f0" stroke-linejoin="round" stroke-linecap="round" stroke-miterlimit="10" pointer-events="none"/><path d="M 206.49 203.5 M 206.49 203.5 C 243.38 203.4 279.37 204.59 375.5 203.5 M 206.49 203.5 C 257.21 203.57 308.65 203.7 375.5 203.5 M 375.5 203.5 C 381.43 205.01 385.52 201.62 385.5 193.5 M 375.5 203.5 C 379.88 204.9 387.23 201.06 385.5 193.5 M 385.5 193.5 C 385.19 183.36 387.37 169.54 385.5 162.74 M 385.5 193.5 C 385.5 187 385.41 178.89 385.5 162.74" fill="none" stroke="#f0f0f0" stroke-linejoin="round" stroke-linecap="round" stroke-miterlimit="10" pointer-events="none"/><path d="M 191.49 203.5 M 191.49 203.5 C 193.58 202.35 195.28 201.93 198.99 199.09 M 191.49 203.5 C 193.5 202.27 195.79 200.98 198.99 199.09 M 198.99 199.09 C 201.63 199.38 203.5 202.06 206.49 203.5 M 198.99 199.09 C 201.67 200.52 204.36 202.49 206.49 203.5 M 206.49 203.5 C 205.15 204.64 203.66 205.6 198.99 207.91 M 206.49 203.5 C 204.04 204.66 202.03 205.85 198.99 207.91 M 198.99 207.91 C 197.09 206.66 195.67 205.32 191.49 203.5 M 198.99 207.91 C 196.9 206.43 194.65 205.37 191.49 203.5" fill="none" stroke="#f0f0f0" stroke-linejoin="round" stroke-linecap="round" stroke-miterlimit="10" pointer-events="none"/><path d="M 392 174.62 M 392 174.62 C 391.46 171.45 390.27 169.57 385.5 161.62 M 392 174.62 C 389.63 170.87 387.66 167.01 385.5 161.62 M 385.5 161.62 C 384.95 163.6 383.06 169.56 379 174.62 M 385.5 161.62 C 383.56 165.83 381.62 171.03 379 174.62" fill="none" stroke="#f0f0f0" stroke-linejoin="round" stroke-linecap="round" stroke-miterlimit="10" pointer-events="none"/></svg>