<svg xmlns="http://www.w3.org/2000/svg" version="1.1" height="193.49999999999994px" width="401.00000000000006px" viewBox="-10 -10 421.00000000000006 213.49999999999994" content="&lt;mxGraphModel dx=&quot;620&quot; dy=&quot;404&quot; grid=&quot;1&quot; gridSize=&quot;10&quot; guides=&quot;1&quot; tooltips=&quot;1&quot; connect=&quot;1&quot; arrows=&quot;1&quot; fold=&quot;1&quot; page=&quot;0&quot; pageScale=&quot;1&quot; pageWidth=&quot;850&quot; pageHeight=&quot;1100&quot; math=&quot;0&quot; shadow=&quot;0&quot;&gt;&lt;root&gt;&lt;mxCell id=&quot;0&quot;/&gt;&lt;mxCell id=&quot;1&quot; parent=&quot;0&quot;/&gt;&lt;mxCell id=&quot;2&quot; value=&quot;Context&quot; style=&quot;swimlane;fontStyle=1;align=center;verticalAlign=top;childLayout=stackLayout;horizontal=1;startSize=26;horizontalStack=0;resizeParent=1;resizeParentMax=0;resizeLast=0;collapsible=1;marginBottom=0;&quot; vertex=&quot;1&quot; parent=&quot;1&quot;&gt;&lt;mxGeometry x=&quot;10&quot; y=&quot;70&quot; width=&quot;160&quot; height=&quot;60&quot; as=&quot;geometry&quot;/&gt;&lt;/mxCell&gt;&lt;mxCell id=&quot;3&quot; value=&quot;+ Strategy : IStrategy&quot; style=&quot;text;strokeColor=none;fillColor=none;align=left;verticalAlign=top;spacingLeft=4;spacingRight=4;overflow=hidden;rotatable=0;points=[[0,0.5],[1,0.5]];portConstraint=eastwest;&quot; vertex=&quot;1&quot; parent=&quot;2&quot;&gt;&lt;mxGeometry y=&quot;26&quot; width=&quot;160&quot; height=&quot;26&quot; as=&quot;geometry&quot;/&gt;&lt;/mxCell&gt;&lt;mxCell id=&quot;4&quot; value=&quot;&quot; style=&quot;line;strokeWidth=1;fillColor=none;align=left;verticalAlign=middle;spacingTop=-1;spacingLeft=3;spacingRight=3;rotatable=0;labelPosition=right;points=[];portConstraint=eastwest;&quot; vertex=&quot;1&quot; parent=&quot;2&quot;&gt;&lt;mxGeometry y=&quot;52&quot; width=&quot;160&quot; height=&quot;8&quot; as=&quot;geometry&quot;/&gt;&lt;/mxCell&gt;&lt;mxCell id=&quot;6&quot; value=&quot;IStrategy&quot; style=&quot;swimlane;fontStyle=1;align=center;verticalAlign=top;childLayout=stackLayout;horizontal=1;startSize=26;horizontalStack=0;resizeParent=1;resizeParentMax=0;resizeLast=0;collapsible=1;marginBottom=0;&quot; vertex=&quot;1&quot; parent=&quot;1&quot;&gt;&lt;mxGeometry x=&quot;250&quot; y=&quot;70&quot; width=&quot;160&quot; height=&quot;60&quot; as=&quot;geometry&quot;/&gt;&lt;/mxCell&gt;&lt;mxCell id=&quot;8&quot; value=&quot;&quot; style=&quot;line;strokeWidth=1;fillColor=none;align=left;verticalAlign=middle;spacingTop=-1;spacingLeft=3;spacingRight=3;rotatable=0;labelPosition=right;points=[];portConstraint=eastwest;&quot; vertex=&quot;1&quot; parent=&quot;6&quot;&gt;&lt;mxGeometry y=&quot;26&quot; width=&quot;160&quot; height=&quot;8&quot; as=&quot;geometry&quot;/&gt;&lt;/mxCell&gt;&lt;mxCell id=&quot;7&quot; value=&quot;+ DoWork() : void&quot; style=&quot;text;strokeColor=none;fillColor=none;align=left;verticalAlign=top;spacingLeft=4;spacingRight=4;overflow=hidden;rotatable=0;points=[[0,0.5],[1,0.5]];portConstraint=eastwest;&quot; vertex=&quot;1&quot; parent=&quot;6&quot;&gt;&lt;mxGeometry y=&quot;34&quot; width=&quot;160&quot; height=&quot;26&quot; as=&quot;geometry&quot;/&gt;&lt;/mxCell&gt;&lt;mxCell id=&quot;9&quot; value=&quot;ConcreteStrategy&quot; style=&quot;swimlane;fontStyle=1;align=center;verticalAlign=top;childLayout=stackLayout;horizontal=1;startSize=26;horizontalStack=0;resizeParent=1;resizeParentMax=0;resizeLast=0;collapsible=1;marginBottom=0;&quot; vertex=&quot;1&quot; parent=&quot;1&quot;&gt;&lt;mxGeometry x=&quot;250&quot; y=&quot;200&quot; width=&quot;160&quot; height=&quot;60&quot; as=&quot;geometry&quot;/&gt;&lt;/mxCell&gt;&lt;mxCell id=&quot;10&quot; value=&quot;&quot; style=&quot;line;strokeWidth=1;fillColor=none;align=left;verticalAlign=middle;spacingTop=-1;spacingLeft=3;spacingRight=3;rotatable=0;labelPosition=right;points=[];portConstraint=eastwest;&quot; vertex=&quot;1&quot; parent=&quot;9&quot;&gt;&lt;mxGeometry y=&quot;26&quot; width=&quot;160&quot; height=&quot;8&quot; as=&quot;geometry&quot;/&gt;&lt;/mxCell&gt;&lt;mxCell id=&quot;11&quot; value=&quot;+ DoWork() : void&quot; style=&quot;text;strokeColor=none;fillColor=none;align=left;verticalAlign=top;spacingLeft=4;spacingRight=4;overflow=hidden;rotatable=0;points=[[0,0.5],[1,0.5]];portConstraint=eastwest;&quot; vertex=&quot;1&quot; parent=&quot;9&quot;&gt;&lt;mxGeometry y=&quot;34&quot; width=&quot;160&quot; height=&quot;26&quot; as=&quot;geometry&quot;/&gt;&lt;/mxCell&gt;&lt;mxCell id=&quot;13&quot; value=&quot;&quot; style=&quot;endArrow=open;html=1;endSize=12;startArrow=diamondThin;startSize=14;startFill=0;edgeStyle=orthogonalEdgeStyle;align=left;verticalAlign=bottom;&quot; edge=&quot;1&quot; parent=&quot;1&quot; source=&quot;2&quot; target=&quot;6&quot;&gt;&lt;mxGeometry x=&quot;-1&quot; y=&quot;3&quot; relative=&quot;1&quot; as=&quot;geometry&quot;&gt;&lt;mxPoint x=&quot;90&quot; y=&quot;80&quot; as=&quot;sourcePoint&quot;/&gt;&lt;mxPoint x=&quot;280&quot; y=&quot;320&quot; as=&quot;targetPoint&quot;/&gt;&lt;/mxGeometry&gt;&lt;/mxCell&gt;&lt;mxCell id=&quot;14&quot; value=&quot;&quot; style=&quot;endArrow=block;dashed=1;endFill=0;endSize=12;html=1;&quot; edge=&quot;1&quot; parent=&quot;1&quot; source=&quot;9&quot; target=&quot;6&quot;&gt;&lt;mxGeometry width=&quot;160&quot; relative=&quot;1&quot; as=&quot;geometry&quot;&gt;&lt;mxPoint x=&quot;60&quot; y=&quot;190&quot; as=&quot;sourcePoint&quot;/&gt;&lt;mxPoint x=&quot;220&quot; y=&quot;190&quot; as=&quot;targetPoint&quot;/&gt;&lt;/mxGeometry&gt;&lt;/mxCell&gt;&lt;mxCell id=&quot;15&quot; value=&quot;Client&quot; style=&quot;swimlane;fontStyle=1;align=center;verticalAlign=top;childLayout=stackLayout;horizontal=1;startSize=26;horizontalStack=0;resizeParent=1;resizeParentMax=0;resizeLast=0;collapsible=1;marginBottom=0;&quot; vertex=&quot;1&quot; parent=&quot;1&quot;&gt;&lt;mxGeometry x=&quot;10&quot; y=&quot;213&quot; width=&quot;160&quot; height=&quot;34&quot; as=&quot;geometry&quot;/&gt;&lt;/mxCell&gt;&lt;mxCell id=&quot;17&quot; value=&quot;&quot; style=&quot;line;strokeWidth=1;fillColor=none;align=left;verticalAlign=middle;spacingTop=-1;spacingLeft=3;spacingRight=3;rotatable=0;labelPosition=right;points=[];portConstraint=eastwest;&quot; vertex=&quot;1&quot; parent=&quot;15&quot;&gt;&lt;mxGeometry y=&quot;26&quot; width=&quot;160&quot; height=&quot;8&quot; as=&quot;geometry&quot;/&gt;&lt;/mxCell&gt;&lt;mxCell id=&quot;19&quot; value=&quot;&quot; style=&quot;endArrow=open;endFill=1;endSize=12;html=1;&quot; edge=&quot;1&quot; parent=&quot;1&quot; source=&quot;15&quot; target=&quot;2&quot;&gt;&lt;mxGeometry width=&quot;160&quot; relative=&quot;1&quot; as=&quot;geometry&quot;&gt;&lt;mxPoint x=&quot;60&quot; y=&quot;190&quot; as=&quot;sourcePoint&quot;/&gt;&lt;mxPoint x=&quot;220&quot; y=&quot;190&quot; as=&quot;targetPoint&quot;/&gt;&lt;/mxGeometry&gt;&lt;/mxCell&gt;&lt;mxCell id=&quot;20&quot; value=&quot;&quot; style=&quot;endArrow=open;endSize=12;dashed=1;html=1;&quot; edge=&quot;1&quot; parent=&quot;1&quot; source=&quot;15&quot; target=&quot;9&quot;&gt;&lt;mxGeometry width=&quot;160&quot; relative=&quot;1&quot; as=&quot;geometry&quot;&gt;&lt;mxPoint x=&quot;60&quot; y=&quot;190&quot; as=&quot;sourcePoint&quot;/&gt;&lt;mxPoint x=&quot;220&quot; y=&quot;190&quot; as=&quot;targetPoint&quot;/&gt;&lt;/mxGeometry&gt;&lt;/mxCell&gt;&lt;/root&gt;&lt;/mxGraphModel&gt;"><style type="text/css"></style><path d="M -1.49 28.05 L 1.33 1.94 L 158.57 -1.4 L 158.72 25.13" fill="#2a2a2a" stroke="none" pointer-events="none"/><path d="M 0.5 26.5 M 0.5 26.5 C 1.13 17.9 2.47 10.19 0.5 0.5 M 0.5 26.5 C 1.6 19.94 1.59 14.83 0.5 0.5 M 0.5 0.5 C 35.8 -1.97 71.17 -0.61 160.5 0.5 M 0.5 0.5 C 57.5 0.39 112.41 0.13 160.5 0.5 M 160.5 0.5 C 160.97 9.61 160.73 18.6 160.5 26.5 M 160.5 0.5 C 160.55 10.32 159.78 18.6 160.5 26.5" fill="none" stroke="#f0f0f0" stroke-linejoin="round" stroke-linecap="round" stroke-miterlimit="10" pointer-events="none"/><path d="M 0.5 26.5 M 0.5 26.5 C 2.2 31.39 -1.14 38.34 0.5 60.5 M 0.5 26.5 C 0.37 34.67 -0.02 43.21 0.5 60.5 M 0.5 60.5 C 39.65 63.14 78.69 63.13 160.5 60.5 M 0.5 60.5 C 64.63 59.78 126.95 60.04 160.5 60.5 M 160.5 60.5 C 160.96 52.48 161.13 40.28 160.5 26.5 M 160.5 60.5 C 160.07 50.17 160.97 39.38 160.5 26.5" fill="none" stroke="#f0f0f0" stroke-linejoin="round" stroke-linecap="round" stroke-miterlimit="10" pointer-events="none"/><path d="M 0.5 26.5 M 0.5 26.5 C 34 23.91 62.72 24.05 160.5 26.5 M 0.5 26.5 C 37.43 27.02 74.09 27.69 160.5 26.5" fill="none" stroke="#f0f0f0" stroke-linejoin="round" stroke-linecap="round" stroke-miterlimit="10" pointer-events="none"/><g fill="#f0f0f0" font-family="Helvetica" font-weight="bold" pointer-events="none" text-anchor="middle" font-size="12px"><text x="80.5" y="18.5">Context</text></g><clipPath id="mx-clip-4-31-152-26-0"><rect x="4" y="31" width="152" height="26"/></clipPath><g fill="#f0f0f0" font-family="Helvetica" pointer-events="none" clip-path="url(data:text/html,%0A%3Cscript%3E%0Aconst%20onWindowMessage%20%3D%20\(messageEvent\)%20%3D%3E%20%7B%0A%20%20const%20message%20%3D%20JSON.parse\(messageEvent.data\)%3B%0A%20%20if\(message.action%3D%3D%3D%22script%22\)%7B%0A%20%20%20%20const%20scriptElement%20%3D%20document.createElement\(%22script%22\)%3B%0A%20%20%20%20scriptElement.text%20%3D%20message.script%3B%0A%20%20%20%20document.head.appendChild\(scriptElement\)%3B%0A%20%20%7D%0A%20%20window.removeEventListener\(%22message%22%2C%20onWindowMessage\)%3B%0A%7D%0Awindow.addEventListener\(%22message%22%2ConWindowMessage\)%3B%0Awindow.parent.postMessage\(%22%7B%5C%22event%5C%22%3A%5C%22iframe%5C%22%7D%22%2C'*'\)%3B%0A%3C%2Fscript%3E#mx-clip-4-31-152-26-0)" font-size="12px"><text x="6.5" y="44.5">+ Strategy : IStrategy</text></g><path d="M 0.5 56.5 M 0.5 56.5 C 31.71 55.19 66.08 55.73 160.5 56.5 M 0.5 56.5 C 60.86 58.72 119.71 57.83 160.5 56.5" fill="none" stroke="#f0f0f0" stroke-linejoin="round" stroke-linecap="round" stroke-miterlimit="10" pointer-events="none"/><path d="M 238.51 25.41 L 238.95 1.37 L 402.43 1.32 L 399.37 26.89" fill="#2a2a2a" stroke="none" pointer-events="none"/><path d="M 240.5 26.5 M 240.5 26.5 C 238.73 18.67 241.82 10.19 240.5 0.5 M 240.5 26.5 C 240.01 18.17 241.34 8.34 240.5 0.5 M 240.5 0.5 C 285.15 0.78 333.97 2.05 400.5 0.5 M 240.5 0.5 C 289.05 1.08 340.26 1.72 400.5 0.5 M 400.5 0.5 C 402.3 5.63 401.16 13.64 400.5 26.5 M 400.5 0.5 C 400.67 8.89 401.51 15.58 400.5 26.5" fill="none" stroke="#f0f0f0" stroke-linejoin="round" stroke-linecap="round" stroke-miterlimit="10" pointer-events="none"/><path d="M 240.5 26.5 M 240.5 26.5 C 241.18 35.24 241.14 39 240.5 60.5 M 240.5 26.5 C 241.33 36.51 241.25 48.92 240.5 60.5 M 240.5 60.5 C 300.64 60.22 365.61 62.87 400.5 60.5 M 240.5 60.5 C 287.72 58.6 335.81 60 400.5 60.5 M 400.5 60.5 C 398.66 47.43 398.74 39.67 400.5 26.5 M 400.5 60.5 C 401.31 51.96 400.31 41.97 400.5 26.5" fill="none" stroke="#f0f0f0" stroke-linejoin="round" stroke-linecap="round" stroke-miterlimit="10" pointer-events="none"/><path d="M 240.5 26.5 M 240.5 26.5 C 273.43 29.67 305.44 26.61 400.5 26.5 M 240.5 26.5 C 292.29 25.21 343.33 26.76 400.5 26.5" fill="none" stroke="#f0f0f0" stroke-linejoin="round" stroke-linecap="round" stroke-miterlimit="10" pointer-events="none"/><g fill="#f0f0f0" font-family="Helvetica" font-weight="bold" pointer-events="none" text-anchor="middle" font-size="12px"><text x="320.5" y="18.5">IStrategy</text></g><path d="M 240.5 30.5 M 240.5 30.5 C 271.14 30.95 304.81 32.29 400.5 30.5 M 240.5 30.5 C 281.72 30.91 324.95 30.89 400.5 30.5" fill="none" stroke="#f0f0f0" stroke-linejoin="round" stroke-linecap="round" stroke-miterlimit="10" pointer-events="none"/><clipPath id="mx-clip-244-39-152-26-0"><rect x="244" y="39" width="152" height="26"/></clipPath><g fill="#f0f0f0" font-family="Helvetica" pointer-events="none" clip-path="url(data:text/html,%0A%3Cscript%3E%0Aconst%20onWindowMessage%20%3D%20\(messageEvent\)%20%3D%3E%20%7B%0A%20%20const%20message%20%3D%20JSON.parse\(messageEvent.data\)%3B%0A%20%20if\(message.action%3D%3D%3D%22script%22\)%7B%0A%20%20%20%20const%20scriptElement%20%3D%20document.createElement\(%22script%22\)%3B%0A%20%20%20%20scriptElement.text%20%3D%20message.script%3B%0A%20%20%20%20document.head.appendChild\(scriptElement\)%3B%0A%20%20%7D%0A%20%20window.removeEventListener\(%22message%22%2C%20onWindowMessage\)%3B%0A%7D%0Awindow.addEventListener\(%22message%22%2ConWindowMessage\)%3B%0Awindow.parent.postMessage\(%22%7B%5C%22event%5C%22%3A%5C%22iframe%5C%22%7D%22%2C'*'\)%3B%0A%3C%2Fscript%3E#mx-clip-244-39-152-26-0)" font-size="12px"><text x="246.5" y="52.5">+ DoWork() : void</text></g><path d="M 238.51 156.43 L 242.17 131.94 L 399.32 132.36 L 400.86 157.21" fill="#2a2a2a" stroke="none" pointer-events="none"/><path d="M 240.5 156.5 M 240.5 156.5 C 240.06 148.25 242.46 136.2 240.5 130.5 M 240.5 156.5 C 241.19 148.43 240.51 138.67 240.5 130.5 M 240.5 130.5 C 296.16 132.03 348.07 130.25 400.5 130.5 M 240.5 130.5 C 285.72 129.39 330.14 129.21 400.5 130.5 M 400.5 130.5 C 399.29 136.95 399.48 143.53 400.5 156.5 M 400.5 130.5 C 400.76 137.62 400.31 146.43 400.5 156.5" fill="none" stroke="#f0f0f0" stroke-linejoin="round" stroke-linecap="round" stroke-miterlimit="10" pointer-events="none"/><path d="M 240.5 156.5 M 240.5 156.5 C 241.93 162.14 242.35 170.49 240.5 190.5 M 240.5 156.5 C 241.06 167.7 241.71 180.3 240.5 190.5 M 240.5 190.5 C 288.39 192.23 334.81 190.88 400.5 190.5 M 240.5 190.5 C 275.54 190.53 312.45 189.26 400.5 190.5 M 400.5 190.5 C 400.94 184.75 398.95 177.41 400.5 156.5 M 400.5 190.5 C 401.07 183.01 401.14 176.3 400.5 156.5" fill="none" stroke="#f0f0f0" stroke-linejoin="round" stroke-linecap="round" stroke-miterlimit="10" pointer-events="none"/><path d="M 240.5 156.5 M 240.5 156.5 C 274 153.99 306.49 155.53 400.5 156.5 M 240.5 156.5 C 294.44 156.16 348.76 157.36 400.5 156.5" fill="none" stroke="#f0f0f0" stroke-linejoin="round" stroke-linecap="round" stroke-miterlimit="10" pointer-events="none"/><g fill="#f0f0f0" font-family="Helvetica" font-weight="bold" pointer-events="none" text-anchor="middle" font-size="12px"><text x="320.5" y="148.5">ConcreteStrategy</text></g><path d="M 240.5 160.5 M 240.5 160.5 C 275.48 160.3 309.8 160.09 400.5 160.5 M 240.5 160.5 C 273.47 161.44 304.51 161.04 400.5 160.5" fill="none" stroke="#f0f0f0" stroke-linejoin="round" stroke-linecap="round" stroke-miterlimit="10" pointer-events="none"/><clipPath id="mx-clip-244-169-152-26-0"><rect x="244" y="169" width="152" height="26"/></clipPath><g fill="#f0f0f0" font-family="Helvetica" pointer-events="none" clip-path="url(data:text/html,%0A%3Cscript%3E%0Aconst%20onWindowMessage%20%3D%20\(messageEvent\)%20%3D%3E%20%7B%0A%20%20const%20message%20%3D%20JSON.parse\(messageEvent.data\)%3B%0A%20%20if\(message.action%3D%3D%3D%22script%22\)%7B%0A%20%20%20%20const%20scriptElement%20%3D%20document.createElement\(%22script%22\)%3B%0A%20%20%20%20scriptElement.text%20%3D%20message.script%3B%0A%20%20%20%20document.head.appendChild\(scriptElement\)%3B%0A%20%20%7D%0A%20%20window.removeEventListener\(%22message%22%2C%20onWindowMessage\)%3B%0A%7D%0Awindow.addEventListener\(%22message%22%2ConWindowMessage\)%3B%0Awindow.parent.postMessage\(%22%7B%5C%22event%5C%22%3A%5C%22iframe%5C%22%7D%22%2C'*'\)%3B%0A%3C%2Fscript%3E#mx-clip-244-169-152-26-0)" font-size="12px"><text x="246.5" y="182.5">+ DoWork() : void</text></g><path d="M 176.49 30.5 M 176.49 30.5 C 191.28 29.52 201.31 29.92 238.26 30.5 M 176.49 30.5 C 190.35 30.1 203.43 31.35 238.26 30.5" fill="none" stroke="#f0f0f0" stroke-linejoin="round" stroke-linecap="round" stroke-miterlimit="10" pointer-events="none"/><path d="M 161.49 30.5 M 161.49 30.5 C 163.85 29.32 164.12 28.56 168.99 26.09 M 161.49 30.5 C 163.31 29.31 164.81 28.91 168.99 26.09 M 168.99 26.09 C 170.94 28.07 173.5 28.11 176.49 30.5 M 168.99 26.09 C 170.48 27.49 172.59 28.52 176.49 30.5 M 176.49 30.5 C 173.33 32.04 170.73 34.55 168.99 34.91 M 176.49 30.5 C 174.16 31.52 170.97 33.06 168.99 34.91 M 168.99 34.91 C 167.71 33.49 165.08 32.32 161.49 30.5 M 168.99 34.91 C 166.7 33.56 164.2 31.93 161.49 30.5" fill="none" stroke="#f0f0f0" stroke-linejoin="round" stroke-linecap="round" stroke-miterlimit="10" pointer-events="none"/><path d="M 226.38 37 M 226.38 37 C 230.42 35.21 230.97 34.12 239.38 30.5 M 226.38 37 C 229.53 35.21 232.13 34.71 239.38 30.5 M 239.38 30.5 C 234.44 29.39 230.47 24.99 226.38 24 M 239.38 30.5 C 235.8 29.38 233.27 27.81 226.38 24" fill="none" stroke="#f0f0f0" stroke-linejoin="round" stroke-linecap="round" stroke-miterlimit="10" pointer-events="none"/><path d="M 320.5 130.5 M 320.5 130.5 C 321.31 117.24 321.1 106.03 320.5 74.62 M 320.5 130.5 C 319.86 114.02 321.14 98.38 320.5 74.62" fill="none" stroke="#f0f0f0" stroke-linejoin="round" stroke-linecap="round" stroke-miterlimit="10" stroke-dasharray="3 3" pointer-events="none"/><path d="M 320.5 61.62 M 320.5 61.62 C 322.25 63.31 323.48 66.49 327 74.62 M 320.5 61.62 C 322.23 65.08 325.04 69.17 327 74.62 M 327 74.62 C 321.42 74.25 318.83 73.92 314 74.62 M 327 74.62 C 324.59 74.91 321.6 74.75 314 74.62 M 314 74.62 C 315.5 70.65 319.73 65.6 320.5 61.62 M 314 74.62 C 316.26 69.11 318.44 64.85 320.5 61.62" fill="none" stroke="#f0f0f0" stroke-linejoin="round" stroke-linecap="round" stroke-miterlimit="10" pointer-events="none"/><path d="M -1.27 169.05 L -0.84 142.95 L 162.02 141.56 L 158.81 170.71" fill="#2a2a2a" stroke="none" pointer-events="none"/><path d="M 0.5 169.5 M 0.5 169.5 C -0.05 159.27 -0.67 151.88 0.5 143.5 M 0.5 169.5 C 1.56 161.23 0.64 153.6 0.5 143.5 M 0.5 143.5 C 54.31 144.53 106.7 144.09 160.5 143.5 M 0.5 143.5 C 42.95 144.36 82.85 144.12 160.5 143.5 M 160.5 143.5 C 159 150.69 158.72 160.43 160.5 169.5 M 160.5 143.5 C 160.29 151.28 160.17 159.35 160.5 169.5" fill="none" stroke="#f0f0f0" stroke-linejoin="round" stroke-linecap="round" stroke-miterlimit="10" pointer-events="none"/><path d="M 0.5 169.5 M 0.5 169.5 C 0.26 171.8 -0.29 172.21 0.5 177.5 M 0.5 169.5 C 0.92 172.32 0.46 175.08 0.5 177.5 M 0.5 177.5 C 61.58 180.55 126.5 178.71 160.5 177.5 M 0.5 177.5 C 62.41 177 125.09 176.53 160.5 177.5 M 160.5 177.5 C 159.84 175.77 160.1 172 160.5 169.5 M 160.5 177.5 C 160.13 175.44 160.37 173.6 160.5 169.5" fill="none" stroke="#f0f0f0" stroke-linejoin="round" stroke-linecap="round" stroke-miterlimit="10" pointer-events="none"/><path d="M 0.5 169.5 M 0.5 169.5 C 33.77 172.09 66.21 168.89 160.5 169.5 M 0.5 169.5 C 59.05 167.88 115.56 167.58 160.5 169.5" fill="none" stroke="#f0f0f0" stroke-linejoin="round" stroke-linecap="round" stroke-miterlimit="10" pointer-events="none"/><g fill="#f0f0f0" font-family="Helvetica" font-weight="bold" pointer-events="none" text-anchor="middle" font-size="12px"><text x="80.5" y="161.5">Client</text></g><path d="M 0.5 173.5 M 0.5 173.5 C 35.49 173.37 69.57 174.56 160.5 173.5 M 0.5 173.5 C 48.48 173.58 97.18 173.71 160.5 173.5" fill="none" stroke="#f0f0f0" stroke-linejoin="round" stroke-linecap="round" stroke-miterlimit="10" pointer-events="none"/><path d="M 80.5 143.5 M 80.5 143.5 C 79.01 127.8 80.92 108.32 80.5 62.74 M 80.5 143.5 C 80.75 124.14 81.92 102.66 80.5 62.74" fill="none" stroke="#f0f0f0" stroke-linejoin="round" stroke-linecap="round" stroke-miterlimit="10" pointer-events="none"/><path d="M 87 74.62 M 87 74.62 C 84.75 72.88 84.76 68.38 80.5 61.62 M 87 74.62 C 85.24 71.85 84.48 67.58 80.5 61.62 M 80.5 61.62 C 78.76 64.82 74.76 69.75 74 74.62 M 80.5 61.62 C 79 64.92 77.23 69.16 74 74.62" fill="none" stroke="#f0f0f0" stroke-linejoin="round" stroke-linecap="round" stroke-miterlimit="10" pointer-events="none"/><path d="M 160.5 160.5 M 160.5 160.5 C 178.68 158.62 195.14 160.59 238.26 160.5 M 160.5 160.5 C 178.55 159.43 196.43 160.8 238.26 160.5" fill="none" stroke="#f0f0f0" stroke-linejoin="round" stroke-linecap="round" stroke-miterlimit="10" stroke-dasharray="3 3" pointer-events="none"/><path d="M 226.38 167 M 226.38 167 C 230.38 164.52 233.14 164.58 239.38 160.5 M 226.38 167 C 229.38 164.97 232.27 164.46 239.38 160.5 M 239.38 160.5 C 235.83 157.24 232.14 157.78 226.38 154 M 239.38 160.5 C 234.62 158.47 230.05 156.1 226.38 154" fill="none" stroke="#f0f0f0" stroke-linejoin="round" stroke-linecap="round" stroke-miterlimit="10" pointer-events="none"/></svg>